<svg width="728" height="545" viewBox="0 0 728 545" fill="none" xmlns="http://www.w3.org/2000/svg">
<g clip-path="url(#clip0_134_243)">
<rect width="728" height="545" fill="url(#paint0_linear_134_243)"/>
<rect width="728" height="545" fill="url(#paint1_linear_134_243)"/>
<path d="M364.5 380.337C460.431 380.337 538.198 302.57 538.198 206.639C538.198 110.708 460.431 32.9409 364.5 32.9409C268.569 32.9409 190.802 110.708 190.802 206.639C190.802 302.57 268.569 380.337 364.5 380.337Z" stroke="white" stroke-opacity="0.38" stroke-width="2"/>
<path d="M364.248 361.205C449.474 361.205 518.563 292.116 518.563 206.891C518.563 121.665 449.474 52.5764 364.248 52.5764C279.023 52.5764 209.934 121.665 209.934 206.891C209.934 292.116 279.023 361.205 364.248 361.205Z" stroke="white" stroke-opacity="0.38" stroke-width="2"/>
<path d="M364.248 340.059C437.795 340.059 497.417 280.437 497.417 206.891C497.417 133.344 437.795 73.7222 364.248 73.7222C290.701 73.7222 231.08 133.344 231.08 206.891C231.08 280.437 290.701 340.059 364.248 340.059Z" stroke="white" stroke-opacity="0.38" stroke-width="2"/>
<path d="M364.248 314.382C423.614 314.382 471.739 266.257 471.739 206.891C471.739 147.525 423.614 99.3994 364.248 99.3994C304.882 99.3994 256.757 147.525 256.757 206.891C256.757 266.257 304.882 314.382 364.248 314.382Z" stroke="white" stroke-opacity="0.38" stroke-width="2"/>
<path d="M444.871 -31H443.331V51.1365H444.871V-31Z" fill="#EBEBEB"/>
<path d="M448.368 44.2898H439.824V50.0666H448.368V44.2898Z" fill="#DBDBDB"/>
<path d="M448.368 46.2124H439.824V50.0665H448.368V46.2124Z" fill="#C7C7C7"/>
<path d="M445.6 94.6913C449.137 93.859 451.328 90.3186 450.497 86.7822C449.665 83.2463 446.124 81.0547 442.588 81.8865C439.052 82.7182 436.86 86.2591 437.692 89.795C438.524 93.3314 442.065 95.523 445.6 94.6913Z" fill="#EBEBEB"/>
<path d="M465.507 88.2943H422.694L430.446 74.557L436.771 49.04H451.431L457.755 74.557L465.507 88.2943Z" fill="#DBDBDB"/>
<path d="M365.265 -31H363.726V37.6258H365.265V-31Z" fill="#EBEBEB"/>
<path d="M368.771 30.7786H360.228V36.5554H368.771V30.7786Z" fill="#DBDBDB"/>
<path d="M368.771 32.7014H360.228V36.5555H368.771V32.7014Z" fill="#C7C7C7"/>
<path d="M371.077 74.783C371.072 76.0829 370.682 77.3522 369.956 78.4301C369.23 79.5086 368.201 80.3473 366.999 80.8413C365.796 81.3352 364.475 81.4615 363.201 81.2048C361.927 80.948 360.757 80.3197 359.84 79.3988C358.922 78.478 358.299 77.3059 358.047 76.0306C357.796 74.7558 357.927 73.4347 358.426 72.2339C358.925 71.0336 359.767 70.008 360.848 69.2866C361.93 68.5651 363.2 68.1799 364.5 68.1799C365.366 68.1789 366.224 68.3491 367.024 68.6809C367.824 69.0127 368.551 69.499 369.163 70.1128C369.774 70.7265 370.258 71.4555 370.586 72.257C370.915 73.0586 371.082 73.917 371.077 74.783Z" fill="#EBEBEB"/>
<path d="M385.902 74.783H343.098L350.85 61.0458L357.174 35.5288H371.826L378.15 61.0458L385.902 74.783Z" fill="#DBDBDB"/>
<path d="M288.914 -31H287.375V23.514H288.914V-31Z" fill="#EBEBEB"/>
<path d="M292.412 16.6672H283.868V22.4441H292.412V16.6672Z" fill="#DBDBDB"/>
<path d="M292.412 18.5901H283.868V22.4441H292.412V18.5901Z" fill="#C7C7C7"/>
<path d="M294.717 60.6718C294.717 61.9728 294.332 63.2446 293.609 64.326C292.886 65.4075 291.859 66.2508 290.657 66.7487C289.455 67.2462 288.133 67.3766 286.857 67.1228C285.581 66.8691 284.409 66.2427 283.489 65.3229C282.569 64.4031 281.943 63.231 281.689 61.9552C281.435 60.6794 281.566 59.3568 282.063 58.155C282.561 56.9532 283.404 55.9261 284.486 55.2031C285.568 54.4806 286.839 54.095 288.14 54.095C289.884 54.095 291.557 54.7877 292.791 56.0212C294.024 57.2548 294.717 58.9278 294.717 60.6718Z" fill="#EBEBEB"/>
<path d="M309.551 60.6717H266.738L274.49 46.9259L280.814 21.4175H295.474L301.799 46.9259L309.551 60.6717Z" fill="#DBDBDB"/>
<path d="M530 260.224C517.716 276.85 504.918 296.12 501.795 317C501.795 317.322 502.265 317.426 502.343 317.113C503.752 311.423 505.567 305.841 507.772 300.409C515.845 298.191 523.762 296.364 528.008 288.351C532.358 280.121 531.775 269.376 530.957 260.407C530.896 259.928 530.244 259.902 530 260.224Z" fill="#EBEBEB"/>
<path d="M507.893 300.252C513.409 287.881 520.491 275.449 529.487 265.27C529.548 265.2 529.643 265.27 529.591 265.374C523.692 272.621 519.22 280.512 514.845 288.551C518.907 284.418 523.362 280.721 527.216 276.371C527.294 276.284 527.407 276.415 527.338 276.493C523.519 281.086 519.334 286.063 514.357 289.465C513.018 291.935 511.678 294.406 510.312 296.877C510.642 296.685 510.991 296.52 511.33 296.355C511.39 296.355 511.443 296.415 511.382 296.442C511.008 296.633 510.625 296.833 510.233 297.008C509.59 298.173 508.946 299.348 508.285 300.488C508.137 300.748 507.772 300.513 507.893 300.252Z" fill="#A6A6A6"/>
<path d="M511.991 295.937C515.293 294.088 518.446 291.985 521.422 289.647C521.5 289.577 521.613 289.691 521.535 289.76C518.654 292.247 515.498 294.399 512.13 296.172C511.974 296.25 511.843 296.024 511.991 295.937Z" fill="#A6A6A6"/>
<path d="M500.377 313.903C500.377 314.155 500.829 314.155 500.829 313.903C500.89 307.03 500.829 300.131 500.933 293.24C502.673 289.682 506.475 287.725 509.094 284.88C510.983 282.802 512.627 280.513 513.992 278.059C517.16 272.197 519.094 265.748 519.673 259.11C520.404 251.767 517.611 227.529 514.514 228.364C512.913 228.808 507.719 240.814 506.336 244.782C504.104 251.328 502.467 258.063 501.446 264.904C498.941 281.043 499.15 297.643 500.377 313.903Z" fill="#EBEBEB"/>
<path d="M500.324 284.279C500.698 275.579 502.656 266.818 504.491 258.388C506.466 249.305 508.772 240.762 513.444 232.662C513.461 232.631 513.49 232.608 513.524 232.598C513.559 232.588 513.596 232.592 513.626 232.61C513.658 232.627 513.681 232.656 513.69 232.691C513.7 232.725 513.696 232.762 513.679 232.793C510.561 239.091 508.148 245.714 506.484 252.541C506.797 252.055 507.18 251.593 507.502 251.124C507.632 250.941 507.928 251.124 507.806 251.306C507.386 252.039 506.897 252.729 506.345 253.368C506.345 253.368 506.301 253.368 506.284 253.368C504.674 259.858 503.517 266.496 502.534 273.117L502.751 272.856C502.763 272.849 502.778 272.845 502.792 272.845C502.806 272.846 502.82 272.851 502.831 272.859C502.843 272.868 502.851 272.879 502.855 272.893C502.86 272.906 502.86 272.921 502.856 272.935C502.734 273.161 502.595 273.378 502.464 273.596C501.96 276.954 501.499 280.312 501.038 283.635C507.023 278.52 512.13 272.491 515.01 265.061C515.01 265.061 515.079 265.061 515.071 265.061C512.243 272.769 507.798 279.616 500.942 284.288C500.82 285.158 500.69 286.08 500.568 286.976C500.568 287.159 500.246 287.107 500.246 286.933C500.246 286.141 500.246 285.341 500.316 284.549C500.297 284.531 500.283 284.51 500.274 284.486C500.264 284.463 500.26 284.437 500.26 284.412C500.261 284.387 500.267 284.362 500.278 284.339C500.289 284.316 500.305 284.296 500.324 284.279Z" fill="#A6A6A6"/>
<path d="M503.143 271.691C507.719 264.861 511.991 258.231 515.323 250.689C515.323 250.61 515.506 250.689 515.471 250.758C512.652 258.249 508.702 265.844 503.361 271.864C503.265 271.986 503.056 271.83 503.143 271.691Z" fill="#A6A6A6"/>
<path d="M509.225 249.009C511.121 245.651 513.113 242.389 514.897 238.978C514.949 238.883 515.079 238.978 515.045 239.056C513.579 242.61 511.727 245.992 509.52 249.14C509.39 249.349 509.111 249.201 509.225 249.009Z" fill="#A6A6A6"/>
<path d="M508.484 250.462V250.522C508.484 250.522 508.45 250.462 508.484 250.462Z" fill="#A6A6A6"/>
<path d="M495.731 294.041C495.639 298.595 495.103 303.128 494.13 307.578C494.208 308.065 494.278 308.552 494.348 309.057C495.74 304.141 496.543 299.077 496.74 293.971C496.781 293.901 496.803 293.822 496.803 293.741C496.803 293.66 496.781 293.58 496.74 293.51C496.94 286.664 496.433 279.816 495.226 273.074C493.104 260.459 488.458 248.339 479.653 238.883C479.58 238.821 479.494 238.777 479.401 238.754C479.308 238.73 479.211 238.728 479.118 238.747C479.024 238.767 478.936 238.807 478.86 238.865C478.784 238.923 478.722 238.998 478.679 239.083C475.129 248.113 476.365 258.893 479.392 267.897C481.031 272.777 483.376 277.391 486.352 281.591C489.432 285.819 493.26 289.404 495.731 294.041Z" fill="#EBEBEB"/>
<path d="M480.732 243.093C489.067 256.631 494.878 272.673 495.583 288.673C495.583 288.96 495.122 289.03 495.078 288.742C494.887 287.307 494.661 285.88 494.435 284.462C490.955 281.156 487.475 277.667 484.969 273.535C484.964 273.519 484.963 273.502 484.969 273.486C484.974 273.47 484.984 273.456 484.998 273.446C485.011 273.437 485.028 273.432 485.044 273.432C485.061 273.432 485.077 273.438 485.091 273.448C488.092 276.875 490.894 280.408 494.287 283.453C493.687 279.912 492.982 276.432 492.138 273.013L491.476 272.238C491.337 272.073 491.581 271.821 491.729 271.995L491.929 272.212C490.756 267.516 489.303 262.894 487.579 258.371C485.456 255.83 483.081 253.647 481.532 250.593C481.489 250.515 481.593 250.462 481.645 250.532C482.89 252.272 484.09 254.012 485.5 255.647C486.065 256.291 486.683 256.901 487.24 257.527C485.313 252.622 483.031 247.865 480.41 243.294C480.391 243.251 480.389 243.204 480.402 243.16C480.416 243.116 480.445 243.078 480.484 243.054C480.523 243.029 480.57 243.02 480.615 243.027C480.661 243.034 480.702 243.058 480.732 243.093Z" fill="#A6A6A6"/>
<path d="M482.411 259.798C485.108 263.426 488.188 266.888 490.693 270.638C490.763 270.742 490.606 270.855 490.52 270.768C487.292 267.749 484.569 263.626 482.237 259.902C482.159 259.78 482.333 259.684 482.411 259.798Z" fill="#A6A6A6"/>
<path d="M491.067 271.473L491.181 271.586C491.259 271.673 491.137 271.795 491.059 271.717L490.946 271.595C490.933 271.578 490.927 271.557 490.928 271.536C490.93 271.515 490.939 271.496 490.954 271.481C490.969 271.466 490.988 271.457 491.009 271.456C491.03 271.454 491.051 271.46 491.067 271.473Z" fill="#A6A6A6"/>
<path d="M467.656 269.15C468.326 276.11 472.006 284.436 476.46 289.804C478.426 292.138 480.859 294.035 483.603 295.372C486.692 296.903 489.928 298.669 493.173 299.922C494.692 303.793 495.821 307.806 496.54 311.902L496.853 310.84C494.8 293.205 483.385 278.137 468.796 268.463C468.682 268.375 468.544 268.323 468.4 268.314C468.257 268.306 468.114 268.341 467.99 268.416C467.867 268.49 467.769 268.6 467.709 268.731C467.649 268.862 467.631 269.008 467.656 269.15Z" fill="#EBEBEB"/>
<path d="M472.702 274.37C472.598 274.283 472.702 274.1 472.85 274.179C480.869 280.145 487.264 288.027 491.451 297.103C491.555 297.347 491.224 297.556 491.085 297.312C490.406 296.152 489.716 294.992 489.014 293.832C485.682 293.206 482.524 290.865 480.053 288.612C479.984 288.551 480.053 288.455 480.149 288.508C481.426 289.669 482.843 290.666 484.369 291.474C485.726 292.161 487.187 292.596 488.597 293.153C487.361 291.187 486.083 289.308 484.734 287.49C481.138 286.115 477.764 284.218 474.72 281.861C474.625 281.791 474.72 281.635 474.816 281.696C477.827 283.521 480.935 285.182 484.125 286.672C482.094 283.988 479.9 281.432 477.557 279.016C476.417 278.416 475.268 277.815 474.172 277.171C474.157 277.158 474.147 277.139 474.143 277.119C474.139 277.099 474.142 277.078 474.15 277.06C474.159 277.042 474.173 277.026 474.192 277.016C474.21 277.007 474.23 277.003 474.25 277.006C475.168 277.323 476.045 277.749 476.86 278.277C475.512 276.928 474.12 275.614 472.702 274.37Z" fill="#A6A6A6"/>
<path d="M473.015 280.46C473.211 280.579 473.397 280.713 473.572 280.86C473.581 280.871 473.586 280.884 473.586 280.897C473.587 280.911 473.583 280.925 473.575 280.935C473.567 280.946 473.555 280.954 473.542 280.958C473.529 280.962 473.515 280.961 473.502 280.956C473.3 280.86 473.106 280.749 472.919 280.626C472.899 280.612 472.885 280.591 472.88 280.568C472.874 280.544 472.877 280.519 472.89 280.498C472.902 280.477 472.922 280.461 472.945 280.454C472.968 280.447 472.993 280.449 473.015 280.46Z" fill="#A6A6A6"/>
<path d="M519.586 350.06H479.592L482.82 313.633L483.524 305.603H515.654L516.358 313.633L519.586 350.06Z" fill="#C7C7C7"/>
<path d="M516.358 313.633H482.82L483.524 305.603H515.654L516.358 313.633Z" fill="#A6A6A6"/>
<path d="M517.568 299.983H481.619V307.934H517.568V299.983Z" fill="#C7C7C7"/>
<path d="M320.426 244.207H210.249V168.83H320.426V244.207ZM211.119 243.337H319.556V169.7H211.119V243.337Z" fill="#EBEBEB"/>
<path d="M218.862 173.685C218.862 174.119 218.733 174.542 218.492 174.903C218.251 175.263 217.909 175.544 217.509 175.711C217.108 175.876 216.667 175.919 216.242 175.835C215.817 175.75 215.426 175.542 215.119 175.235C214.813 174.929 214.604 174.538 214.519 174.113C214.434 173.687 214.478 173.247 214.644 172.846C214.81 172.445 215.091 172.103 215.452 171.862C215.812 171.621 216.236 171.492 216.669 171.492C217.251 171.492 217.809 171.724 218.22 172.134C218.631 172.546 218.862 173.104 218.862 173.685Z" fill="#A6A6A6"/>
<path d="M227.814 173.685C227.814 174.119 227.686 174.542 227.445 174.903C227.204 175.263 226.861 175.544 226.461 175.711C226.06 175.876 225.619 175.919 225.194 175.835C224.769 175.75 224.378 175.542 224.072 175.235C223.765 174.929 223.556 174.538 223.471 174.113C223.387 173.687 223.431 173.247 223.596 172.846C223.762 172.445 224.043 172.103 224.404 171.862C224.764 171.621 225.188 171.492 225.622 171.492C226.203 171.492 226.761 171.724 227.172 172.134C227.583 172.546 227.814 173.104 227.814 173.685Z" fill="#EBEBEB"/>
<path d="M236.767 173.685C236.767 174.119 236.638 174.542 236.397 174.903C236.156 175.263 235.814 175.544 235.413 175.711C235.013 175.876 234.572 175.919 234.147 175.835C233.721 175.75 233.33 175.542 233.024 175.235C232.717 174.929 232.509 174.538 232.424 174.113C232.34 173.687 232.383 173.247 232.549 172.846C232.715 172.445 232.996 172.103 233.356 171.862C233.717 171.621 234.141 171.492 234.575 171.492C234.863 171.491 235.148 171.547 235.415 171.657C235.681 171.767 235.923 171.928 236.127 172.132C236.331 172.336 236.492 172.578 236.602 172.844C236.712 173.111 236.768 173.397 236.767 173.685Z" fill="#165C5D"/>
<path d="M319.99 177.548H210.684V178.418H319.99V177.548Z" fill="#EBEBEB"/>
<path d="M485.682 206.902C483.958 207.977 482.072 208.767 480.097 209.242C475.363 210.399 470.367 209.729 466.105 207.366C461.843 205.002 458.629 201.119 457.104 196.49C455.579 191.861 455.855 186.828 457.877 182.394C459.899 177.96 463.519 174.451 468.013 172.568C472.508 170.685 477.548 170.565 482.127 172.234C486.706 173.902 490.487 177.235 492.717 181.568C494.947 185.901 495.462 190.916 494.158 195.611C492.854 200.307 489.827 204.338 485.682 206.902Z" fill="#EBEBEB"/>
<path d="M481.393 188.24C481.393 189.405 481.048 190.543 480.4 191.512C479.753 192.481 478.833 193.236 477.757 193.682C476.681 194.127 475.496 194.244 474.354 194.017C473.212 193.789 472.162 193.228 471.338 192.405C470.515 191.581 469.954 190.531 469.727 189.389C469.499 188.247 469.616 187.062 470.061 185.986C470.508 184.91 471.262 183.99 472.231 183.343C473.2 182.695 474.338 182.35 475.503 182.35C477.065 182.352 478.562 182.974 479.666 184.078C480.769 185.182 481.391 186.679 481.393 188.24Z" fill="white"/>
<path d="M485.682 204.474V206.902C483.958 207.977 482.072 208.767 480.097 209.242C477.599 209.858 475.004 209.968 472.464 209.564C469.924 209.161 467.49 208.252 465.307 206.893V204.474C465.307 201.774 466.379 199.185 468.288 197.277C470.197 195.368 472.786 194.295 475.486 194.295C478.185 194.295 480.774 195.368 482.683 197.277C484.592 199.185 485.665 201.774 485.665 204.474H485.682Z" fill="white"/>
<path d="M169.777 350.321L218.462 350.112L267.138 350.034L364.5 349.886L461.861 350.034L510.547 350.112L559.223 350.321L510.547 350.539L461.861 350.608L364.5 350.756L267.138 350.608L218.462 350.539L169.777 350.321Z" fill="#263238"/>
<path d="M322.766 341.134H211.928V350.312H322.766V341.134Z" fill="#455A64"/>
<path d="M533.802 341.134H322.758V350.312H533.802V341.134Z" fill="#37474F"/>
<path d="M422.99 341.134H211.928L183.157 205.788H394.219L422.99 341.134Z" fill="#263238"/>
<path d="M278.588 332.582H218.653L193.519 214.332H253.453L278.588 332.582Z" fill="white"/>
<path d="M217.4 258.71C216.982 259.009 216.509 259.225 216.008 259.345C214.592 259.672 213.104 259.445 211.85 258.71C210.516 257.983 209.449 256.849 208.805 255.474C207.517 252.638 208.64 249.784 211.328 249.097C214.016 248.41 217.235 250.14 218.531 252.968C219.575 255.282 219.045 257.579 217.4 258.71Z" fill="#C7C7C7"/>
<path d="M215.147 253.655C215.198 253.845 215.203 254.044 215.163 254.236C215.122 254.428 215.037 254.608 214.914 254.762C214.792 254.915 214.635 255.037 214.456 255.118C214.277 255.2 214.082 255.238 213.886 255.23C213.43 255.213 212.993 255.048 212.641 254.759C212.289 254.47 212.042 254.072 211.937 253.629C211.882 253.437 211.873 253.235 211.911 253.039C211.949 252.843 212.033 252.659 212.156 252.502C212.279 252.345 212.438 252.219 212.619 252.136C212.8 252.052 212.999 252.012 213.198 252.02C213.658 252.041 214.097 252.213 214.449 252.508C214.801 252.804 215.046 253.206 215.147 253.655Z" fill="white"/>
<path d="M217.261 258.084L217.401 258.745C216.982 259.044 216.509 259.26 216.008 259.38C214.592 259.706 213.104 259.479 211.85 258.745L211.711 258.084C211.615 257.752 211.6 257.402 211.666 257.064C211.732 256.725 211.878 256.408 212.091 256.136C212.304 255.865 212.579 255.649 212.893 255.505C213.206 255.361 213.549 255.293 213.894 255.308C214.681 255.343 215.434 255.633 216.042 256.133C216.649 256.634 217.077 257.318 217.261 258.084Z" fill="white"/>
<path d="M246.067 251.046H222.029L221.585 248.975H245.623L246.067 251.046Z" fill="#C7C7C7"/>
<path d="M255.68 254.847H222.838L222.577 253.655H255.428L255.68 254.847Z" fill="#C7C7C7"/>
<path d="M256.228 257.422H223.377L223.125 256.23H255.968L256.228 257.422Z" fill="#C7C7C7"/>
<path d="M220.95 275.24C220.533 275.537 220.064 275.753 219.567 275.875C218.147 276.202 216.657 275.975 215.399 275.24C214.066 274.515 213.002 273.38 212.363 272.004C211.067 269.168 212.189 266.314 214.877 265.627C217.566 264.939 220.785 266.67 222.081 269.498C223.081 271.76 222.551 274.083 220.95 275.24Z" fill="#165C5D"/>
<path d="M218.653 270.159C218.709 270.351 218.718 270.553 218.68 270.748C218.642 270.944 218.557 271.128 218.434 271.284C218.311 271.44 218.152 271.565 217.97 271.648C217.789 271.731 217.591 271.77 217.391 271.76C216.937 271.742 216.5 271.576 216.148 271.287C215.796 270.998 215.549 270.602 215.443 270.159C215.388 269.968 215.379 269.765 215.417 269.569C215.455 269.373 215.539 269.189 215.663 269.032C215.785 268.875 215.944 268.749 216.125 268.666C216.306 268.582 216.505 268.542 216.704 268.55C217.16 268.569 217.597 268.737 217.949 269.028C218.3 269.318 218.547 269.715 218.653 270.159Z" fill="white"/>
<path d="M220.767 274.587L220.95 275.24C220.533 275.537 220.064 275.753 219.567 275.875C218.147 276.202 216.657 275.975 215.399 275.24L215.26 274.579C215.165 274.247 215.15 273.898 215.216 273.559C215.282 273.221 215.428 272.902 215.641 272.631C215.854 272.36 216.129 272.144 216.443 272C216.756 271.856 217.1 271.789 217.444 271.803C218.224 271.848 218.968 272.143 219.567 272.645C220.166 273.146 220.587 273.827 220.767 274.587Z" fill="white"/>
<path d="M249.573 267.558H225.535L225.091 265.479H249.138L249.573 267.558Z" fill="#C7C7C7"/>
<path d="M259.187 271.351H226.344L226.092 270.159H258.935L259.187 271.351Z" fill="#C7C7C7"/>
<path d="M259.734 273.926H226.892L226.631 272.734H259.482L259.734 273.926Z" fill="#C7C7C7"/>
<path d="M224.43 291.77C224.014 292.067 223.544 292.283 223.047 292.405C221.622 292.737 220.124 292.51 218.862 291.77C217.529 291.045 216.465 289.91 215.826 288.534C214.529 285.706 215.661 282.844 218.34 282.157C221.019 281.469 224.256 283.2 225.552 286.028C226.588 288.29 226.057 290.587 224.43 291.77Z" fill="#455A64"/>
<path d="M222.159 286.663C222.22 286.856 222.233 287.061 222.197 287.26C222.162 287.459 222.078 287.647 221.954 287.807C221.83 287.966 221.669 288.094 221.486 288.178C221.301 288.262 221.1 288.301 220.898 288.29C220.443 288.272 220.006 288.106 219.655 287.817C219.303 287.528 219.055 287.132 218.949 286.689C218.893 286.497 218.885 286.294 218.923 286.097C218.962 285.9 219.047 285.716 219.171 285.558C219.295 285.401 219.455 285.276 219.637 285.192C219.82 285.109 220.019 285.07 220.219 285.08C220.67 285.098 221.103 285.263 221.453 285.548C221.803 285.833 222.051 286.225 222.159 286.663Z" fill="white"/>
<path d="M224.273 291.091L224.43 291.77C224.013 292.068 223.544 292.283 223.046 292.405C221.622 292.737 220.124 292.509 218.862 291.77L218.723 291.109C218.619 290.771 218.599 290.413 218.665 290.066C218.73 289.719 218.878 289.393 219.097 289.115C219.316 288.838 219.599 288.618 219.922 288.474C220.245 288.331 220.597 288.267 220.95 288.29C221.732 288.334 222.479 288.631 223.079 289.136C223.678 289.641 224.098 290.328 224.273 291.091Z" fill="white"/>
<path d="M253.088 284.062H229.041L228.606 281.982H252.644L253.088 284.062Z" fill="#C7C7C7"/>
<path d="M262.692 287.855H229.85L229.598 286.663H262.44L262.692 287.855Z" fill="#C7C7C7"/>
<path d="M263.241 290.43H230.398L230.146 289.239H262.988L263.241 290.43Z" fill="#C7C7C7"/>
<path d="M227.91 308.3C227.493 308.599 227.024 308.817 226.526 308.944C225.106 309.263 223.617 309.033 222.359 308.3C221.03 307.57 219.967 306.437 219.323 305.064C218.035 302.21 219.21 299.331 221.82 298.643C224.43 297.956 227.727 299.687 229.024 302.515C230.094 304.82 229.571 307.091 227.91 308.3Z" fill="#263238"/>
<path d="M225.674 303.167C225.735 303.36 225.749 303.565 225.715 303.764C225.681 303.964 225.6 304.152 225.478 304.314C225.356 304.476 225.198 304.606 225.016 304.694C224.833 304.782 224.632 304.826 224.43 304.82C223.974 304.8 223.537 304.632 223.186 304.342C222.834 304.052 222.587 303.655 222.481 303.21C222.428 303.018 222.42 302.816 222.46 302.62C222.499 302.424 222.584 302.24 222.708 302.084C222.832 301.927 222.991 301.801 223.172 301.718C223.353 301.634 223.552 301.594 223.751 301.601C224.197 301.624 224.623 301.788 224.969 302.07C225.315 302.351 225.562 302.736 225.674 303.167Z" fill="white"/>
<path d="M227.78 307.596L227.91 308.3C227.493 308.599 227.024 308.817 226.527 308.944C225.106 309.263 223.617 309.033 222.359 308.3L222.22 307.639C222.118 307.303 222.097 306.947 222.162 306.601C222.226 306.255 222.373 305.93 222.59 305.653C222.807 305.376 223.088 305.156 223.408 305.011C223.728 304.866 224.079 304.8 224.43 304.82C225.214 304.856 225.965 305.146 226.57 305.647C227.174 306.148 227.599 306.831 227.78 307.596Z" fill="white"/>
<path d="M256.594 300.566H232.547L232.112 298.486H256.15L256.594 300.566Z" fill="#C7C7C7"/>
<path d="M266.199 304.359H233.356L233.104 303.167H265.946L266.199 304.359Z" fill="#C7C7C7"/>
<path d="M266.747 306.934H233.904L233.652 305.742H266.495L266.747 306.934Z" fill="#C7C7C7"/>
<path d="M231.433 324.761C231.013 325.059 230.541 325.278 230.042 325.404C228.624 325.724 227.138 325.494 225.883 324.761C224.549 324.034 223.482 322.9 222.838 321.524C221.55 318.697 222.672 315.834 225.361 315.147C228.049 314.459 231.268 316.191 232.565 319.027C233.608 321.35 233.078 323.595 231.433 324.761Z" fill="#C7C7C7"/>
<path d="M229.18 319.671C229.236 319.863 229.245 320.067 229.206 320.263C229.167 320.46 229.083 320.644 228.958 320.802C228.834 320.959 228.674 321.085 228.492 321.168C228.31 321.251 228.11 321.29 227.91 321.28C227.455 321.26 227.02 321.092 226.669 320.801C226.32 320.511 226.074 320.114 225.97 319.671C225.915 319.479 225.906 319.277 225.944 319.081C225.982 318.885 226.066 318.701 226.189 318.544C226.312 318.386 226.471 318.261 226.652 318.177C226.834 318.093 227.032 318.054 227.231 318.061C227.687 318.081 228.124 318.249 228.475 318.54C228.827 318.83 229.075 319.227 229.18 319.671Z" fill="white"/>
<path d="M231.294 324.099L231.433 324.76C231.013 325.059 230.541 325.277 230.042 325.404C228.624 325.724 227.138 325.493 225.883 324.76L225.735 324.099C225.647 323.77 225.636 323.425 225.705 323.091C225.774 322.758 225.92 322.445 226.131 322.178C226.343 321.911 226.613 321.696 226.923 321.553C227.231 321.409 227.57 321.339 227.91 321.35C228.695 321.381 229.45 321.666 230.06 322.161C230.67 322.656 231.103 323.337 231.294 324.099Z" fill="white"/>
<path d="M260.1 317.07H236.062L235.618 314.99H259.665L260.1 317.07Z" fill="#C7C7C7"/>
<path d="M269.713 320.863H236.871L236.61 319.671H269.453L269.713 320.863Z" fill="#C7C7C7"/>
<path d="M270.262 323.438H237.41L237.158 322.246H270.001L270.262 323.438Z" fill="#C7C7C7"/>
<path d="M208.378 230.592C208.115 230.778 207.821 230.913 207.508 230.992C206.619 231.197 205.685 231.054 204.898 230.592C204.071 230.141 203.409 229.437 203.011 228.582C202.202 226.842 202.906 225.041 204.577 224.606C205.487 224.451 206.424 224.604 207.237 225.042C208.051 225.481 208.694 226.179 209.066 227.024C209.39 227.605 209.499 228.281 209.373 228.934C209.248 229.586 208.895 230.174 208.378 230.592Z" fill="#C7C7C7"/>
<path d="M206.969 227.39C207.004 227.509 207.009 227.635 206.986 227.756C206.962 227.878 206.91 227.993 206.834 228.091C206.757 228.188 206.658 228.266 206.546 228.318C206.433 228.371 206.31 228.395 206.186 228.39C205.903 228.379 205.631 228.275 205.413 228.094C205.194 227.913 205.041 227.666 204.977 227.39C204.942 227.271 204.937 227.145 204.96 227.023C204.983 226.902 205.036 226.787 205.112 226.689C205.189 226.591 205.287 226.513 205.4 226.461C205.512 226.409 205.636 226.385 205.76 226.39C206.043 226.403 206.314 226.507 206.532 226.688C206.75 226.868 206.903 227.115 206.969 227.39Z" fill="white"/>
<path d="M208.283 230.183L208.378 230.592C208.115 230.777 207.82 230.913 207.508 230.992C206.619 231.197 205.685 231.054 204.898 230.592L204.812 230.183C204.752 229.975 204.743 229.756 204.784 229.545C204.826 229.333 204.917 229.134 205.05 228.964C205.184 228.794 205.355 228.659 205.551 228.568C205.747 228.477 205.962 228.434 206.177 228.443C206.67 228.462 207.143 228.643 207.524 228.957C207.904 229.271 208.171 229.702 208.283 230.183Z" fill="white"/>
<path d="M249.53 228.521C249.52 228.489 249.518 228.454 249.524 228.42C249.53 228.386 249.545 228.355 249.566 228.329C249.588 228.302 249.616 228.281 249.647 228.268C249.679 228.254 249.713 228.249 249.747 228.252C249.825 228.255 249.9 228.282 249.961 228.331C250.022 228.379 250.066 228.446 250.086 228.521C250.094 228.555 250.094 228.59 250.087 228.624C250.079 228.658 250.064 228.689 250.042 228.716C250.02 228.743 249.992 228.765 249.961 228.779C249.929 228.793 249.895 228.8 249.86 228.799C249.782 228.797 249.706 228.769 249.646 228.718C249.586 228.667 249.545 228.598 249.53 228.521Z" fill="#C7C7C7"/>
<path d="M249.294 227.39C249.285 227.357 249.283 227.322 249.29 227.288C249.296 227.254 249.311 227.222 249.332 227.195C249.353 227.168 249.38 227.146 249.412 227.132C249.443 227.117 249.478 227.11 249.512 227.112C249.591 227.114 249.668 227.142 249.729 227.193C249.791 227.243 249.834 227.312 249.851 227.39C249.861 227.423 249.863 227.458 249.856 227.492C249.85 227.526 249.835 227.558 249.814 227.585C249.793 227.612 249.765 227.634 249.734 227.648C249.703 227.663 249.668 227.67 249.634 227.668C249.554 227.666 249.478 227.638 249.416 227.587C249.355 227.537 249.312 227.467 249.294 227.39Z" fill="#C7C7C7"/>
<path d="M249.06 226.329C249.05 226.295 249.048 226.261 249.055 226.226C249.061 226.193 249.076 226.161 249.097 226.134C249.118 226.107 249.146 226.085 249.177 226.07C249.208 226.056 249.243 226.049 249.277 226.05C249.357 226.052 249.433 226.08 249.495 226.131C249.556 226.182 249.599 226.251 249.617 226.329C249.626 226.362 249.628 226.397 249.621 226.431C249.615 226.465 249.6 226.496 249.579 226.524C249.558 226.551 249.531 226.573 249.499 226.587C249.468 226.602 249.433 226.609 249.399 226.607C249.32 226.603 249.245 226.573 249.184 226.523C249.123 226.473 249.079 226.405 249.06 226.329Z" fill="#C7C7C7"/>
<path d="M245.484 228.13H242.308L241.865 226.05H245.04L245.484 228.13Z" fill="#C7C7C7"/>
<path d="M242.308 228.13L242.448 228.8L242.996 228.13H242.308Z" fill="#C7C7C7"/>
<path d="M244.553 226.607H242.587L242.543 226.407H244.51L244.553 226.607Z" fill="white"/>
<path d="M244.64 227.016H242.674L242.631 226.825H244.605L244.64 227.016Z" fill="white"/>
<path d="M244.727 227.425H242.761L242.726 227.233H244.692L244.727 227.425Z" fill="white"/>
<path d="M388.852 220.726H194.876L193.519 214.332H387.494L388.852 220.726Z" fill="#37474F"/>
<path d="M199.278 217.524C199.334 217.714 199.343 217.914 199.306 218.107C199.269 218.301 199.186 218.484 199.064 218.639C198.943 218.795 198.786 218.919 198.607 219.002C198.428 219.085 198.231 219.124 198.034 219.116C197.584 219.098 197.152 218.932 196.804 218.644C196.457 218.357 196.214 217.963 196.111 217.524C196.058 217.335 196.049 217.136 196.087 216.943C196.125 216.751 196.208 216.57 196.33 216.415C196.451 216.261 196.607 216.137 196.786 216.055C196.964 215.972 197.159 215.933 197.356 215.941C197.805 215.959 198.236 216.123 198.583 216.409C198.93 216.695 199.174 217.086 199.278 217.524Z" fill="#C7C7C7"/>
<path d="M205.76 217.524C205.814 217.714 205.821 217.914 205.783 218.108C205.745 218.302 205.661 218.484 205.539 218.639C205.416 218.794 205.259 218.919 205.08 219.001C204.901 219.084 204.704 219.124 204.507 219.117C204.057 219.095 203.627 218.928 203.28 218.641C202.933 218.354 202.689 217.962 202.584 217.524C202.53 217.335 202.522 217.135 202.561 216.942C202.599 216.748 202.683 216.566 202.805 216.412C202.928 216.257 203.085 216.134 203.264 216.052C203.444 215.97 203.64 215.932 203.837 215.941C204.287 215.959 204.717 216.123 205.064 216.409C205.412 216.695 205.656 217.087 205.76 217.524Z" fill="white"/>
<path d="M212.25 217.524C212.305 217.714 212.315 217.914 212.278 218.107C212.24 218.301 212.158 218.484 212.036 218.639C211.915 218.795 211.758 218.919 211.578 219.002C211.4 219.085 211.203 219.124 211.006 219.116C210.555 219.098 210.123 218.932 209.776 218.644C209.429 218.357 209.185 217.963 209.083 217.524C209.029 217.335 209.021 217.136 209.059 216.943C209.097 216.751 209.18 216.57 209.302 216.415C209.423 216.261 209.579 216.137 209.757 216.055C209.936 215.972 210.131 215.933 210.327 215.941C210.776 215.959 211.208 216.123 211.555 216.409C211.902 216.695 212.146 217.086 212.25 217.524Z" fill="#165C5D"/>
<path d="M388.851 220.726H254.811L278.588 332.582H412.628L388.851 220.726Z" fill="#EBEBEB"/>
<path d="M401.049 327.188H289.741L288.349 320.671H399.666L401.049 327.188Z" fill="white"/>
<path d="M398.822 324.012C398.877 324.204 398.886 324.406 398.847 324.602C398.809 324.798 398.725 324.982 398.602 325.14C398.479 325.297 398.32 325.422 398.139 325.506C397.958 325.59 397.759 325.63 397.56 325.622C397.105 325.6 396.668 325.432 396.317 325.142C395.966 324.852 395.718 324.455 395.611 324.012C395.557 323.82 395.55 323.618 395.589 323.423C395.629 323.227 395.714 323.044 395.838 322.888C395.962 322.732 396.121 322.607 396.302 322.524C396.484 322.441 396.682 322.403 396.881 322.411C397.335 322.431 397.769 322.598 398.119 322.887C398.47 323.176 398.716 323.571 398.822 324.012Z" fill="#165C5D"/>
<path d="M396.725 323.09L397.917 324.012L397.125 324.943L396.873 324.726L397.473 324.012L396.568 323.308L396.725 323.09Z" fill="white"/>
<path d="M291.289 325.874H290.863L290.037 321.985H290.463L291.289 325.874Z" fill="#263238"/>
<path d="M405.39 327.24C405.352 327.239 405.315 327.226 405.285 327.202C405.256 327.179 405.234 327.146 405.225 327.109L404.894 325.543C404.889 325.527 404.886 325.51 404.889 325.493C404.892 325.475 404.899 325.459 404.909 325.446C404.919 325.432 404.933 325.421 404.948 325.414C404.964 325.406 404.981 325.403 404.998 325.404C405.037 325.407 405.074 325.422 405.104 325.447C405.134 325.472 405.155 325.506 405.164 325.543L405.494 327.109C405.498 327.125 405.499 327.141 405.495 327.158C405.492 327.173 405.485 327.188 405.475 327.201C405.464 327.213 405.452 327.224 405.437 327.231C405.422 327.237 405.406 327.241 405.39 327.24Z" fill="#A6A6A6"/>
<path d="M406.26 327.24H404.52C404.482 327.239 404.445 327.226 404.415 327.202C404.385 327.179 404.364 327.146 404.355 327.109C404.351 327.093 404.351 327.076 404.354 327.06C404.357 327.044 404.364 327.029 404.374 327.016C404.384 327.002 404.397 326.991 404.412 326.983C404.426 326.975 404.442 326.971 404.459 326.97H406.199C406.238 326.971 406.276 326.986 406.306 327.011C406.336 327.036 406.357 327.071 406.364 327.109C406.368 327.125 406.369 327.141 406.365 327.158C406.362 327.173 406.355 327.188 406.345 327.201C406.334 327.213 406.322 327.223 406.307 327.231C406.292 327.237 406.276 327.241 406.26 327.24Z" fill="#A6A6A6"/>
<path d="M405.39 321.776L405.868 324.047C405.906 324.179 405.911 324.318 405.885 324.452C405.858 324.587 405.799 324.713 405.715 324.821C405.63 324.929 405.521 325.015 405.396 325.072C405.272 325.13 405.136 325.157 404.998 325.152C404.777 325.144 404.561 325.083 404.368 324.976C404.175 324.869 404.009 324.717 403.885 324.534C403.779 324.389 403.705 324.223 403.668 324.047L403.18 321.776C403.143 321.644 403.138 321.505 403.165 321.371C403.191 321.237 403.249 321.11 403.334 321.003C403.419 320.895 403.528 320.809 403.653 320.751C403.777 320.694 403.913 320.666 404.05 320.671C404.37 320.67 404.679 320.785 404.92 320.993C405.155 321.178 405.324 321.435 405.399 321.724C405.399 321.724 405.39 321.759 405.39 321.776Z" fill="#A6A6A6"/>
<path d="M405.077 325.7C404.638 325.691 404.215 325.535 403.876 325.256C403.503 324.967 403.242 324.559 403.136 324.099L402.937 323.142C402.931 323.126 402.929 323.109 402.931 323.091C402.935 323.074 402.941 323.058 402.951 323.045C402.962 323.031 402.975 323.02 402.991 323.012C403.007 323.005 403.024 323.002 403.041 323.003C403.079 323.004 403.116 323.019 403.144 323.045C403.173 323.07 403.192 323.105 403.197 323.142L403.406 324.099C403.497 324.482 403.715 324.822 404.024 325.065C404.322 325.312 404.699 325.442 405.085 325.431C405.247 325.423 405.406 325.378 405.548 325.3C405.691 325.222 405.813 325.113 405.908 324.981C406.001 324.848 406.064 324.696 406.09 324.535C406.116 324.375 406.106 324.211 406.06 324.056L405.868 323.142C405.863 323.126 405.861 323.109 405.864 323.091C405.866 323.074 405.873 323.058 405.883 323.045C405.893 323.031 405.907 323.02 405.923 323.012C405.938 323.005 405.956 323.002 405.973 323.003C406.011 323.004 406.047 323.019 406.076 323.045C406.104 323.07 406.124 323.105 406.13 323.142L406.329 324.056C406.385 324.243 406.398 324.441 406.365 324.634C406.333 324.827 406.256 325.01 406.142 325.169C406.028 325.328 405.879 325.458 405.706 325.55C405.533 325.643 405.342 325.693 405.146 325.7H405.077Z" fill="#A6A6A6"/>
<path d="M286.678 323.96C286.782 324.349 286.794 324.756 286.714 325.15C286.634 325.544 286.463 325.914 286.217 326.232C285.97 326.549 285.653 326.805 285.291 326.98C284.929 327.155 284.532 327.244 284.129 327.24C283.207 327.2 282.323 326.863 281.609 326.278C280.895 325.693 280.391 324.892 280.171 323.995C280.068 323.606 280.056 323.199 280.136 322.805C280.216 322.411 280.386 322.041 280.633 321.723C280.879 321.405 281.196 321.15 281.559 320.975C281.921 320.8 282.318 320.711 282.72 320.715C283.643 320.751 284.529 321.088 285.243 321.674C285.958 322.259 286.462 323.062 286.678 323.96Z" fill="white"/>
<path d="M282.189 323.29C282.206 323.345 282.21 323.403 282.199 323.458C282.189 323.515 282.165 323.568 282.131 323.613C282.096 323.658 282.05 323.695 281.999 323.718C281.947 323.742 281.89 323.753 281.832 323.751C281.702 323.747 281.576 323.702 281.474 323.62C281.372 323.538 281.299 323.425 281.267 323.299C281.252 323.243 281.25 323.186 281.262 323.129C281.273 323.073 281.298 323.021 281.334 322.976C281.369 322.931 281.415 322.895 281.466 322.871C281.518 322.847 281.575 322.836 281.633 322.838C281.762 322.842 281.887 322.888 281.988 322.97C282.088 323.052 282.159 323.164 282.189 323.29Z" fill="#A6A6A6"/>
<path d="M285.33 323.281C285.347 323.336 285.35 323.394 285.34 323.45C285.33 323.506 285.306 323.559 285.271 323.605C285.236 323.65 285.191 323.686 285.139 323.71C285.087 323.734 285.03 323.745 284.974 323.743C284.843 323.736 284.718 323.689 284.618 323.605C284.517 323.522 284.447 323.408 284.417 323.281C284.4 323.227 284.397 323.169 284.407 323.113C284.417 323.057 284.44 323.003 284.476 322.959C284.51 322.913 284.556 322.877 284.608 322.853C284.659 322.829 284.716 322.818 284.773 322.82C284.904 322.826 285.028 322.875 285.129 322.958C285.229 323.041 285.3 323.154 285.33 323.281Z" fill="#A6A6A6"/>
<path d="M283.947 323.142C283.982 323.29 283.961 323.445 283.886 323.577C283.837 323.659 283.766 323.727 283.682 323.773C283.598 323.818 283.503 323.841 283.407 323.838C283.182 323.835 282.967 323.744 282.807 323.586C282.685 323.468 282.601 323.317 282.563 323.151L283.947 323.142Z" fill="#A6A6A6"/>
<path d="M283.886 323.577C283.836 323.659 283.766 323.726 283.682 323.773C283.598 323.818 283.503 323.841 283.407 323.838C283.182 323.835 282.967 323.744 282.807 323.586C282.872 323.52 282.949 323.469 283.034 323.434C283.119 323.4 283.211 323.383 283.303 323.386C283.513 323.386 283.716 323.453 283.886 323.577Z" fill="#DBDBDB"/>
<path d="M209.057 241.78L208.648 242.154L207.5 240.962L207.082 240.527C207.144 240.504 207.2 240.468 207.247 240.422C207.341 240.337 207.404 240.224 207.43 240.101L207.874 240.562L209.057 241.78Z" fill="#A6A6A6"/>
<path d="M207.508 238.996C207.283 238.719 206.96 238.538 206.606 238.491C206.252 238.444 205.893 238.534 205.603 238.743C205.489 238.874 205.401 239.027 205.347 239.192C205.292 239.358 205.271 239.532 205.285 239.705C205.299 239.879 205.347 240.048 205.427 240.202C205.507 240.357 205.617 240.494 205.751 240.605C205.962 240.847 206.246 241.013 206.561 241.078C206.875 241.143 207.202 241.102 207.491 240.962C207.548 240.931 207.601 240.893 207.648 240.849C207.737 240.768 207.811 240.67 207.865 240.562C207.972 240.296 207.996 240.003 207.932 239.723C207.868 239.443 207.72 239.189 207.508 238.996ZM207.248 240.422C207.2 240.468 207.144 240.504 207.082 240.527C206.914 240.591 206.73 240.601 206.555 240.556C206.38 240.511 206.224 240.412 206.108 240.274C206.028 240.209 205.962 240.128 205.913 240.037C205.866 239.946 205.836 239.845 205.827 239.742C205.818 239.64 205.83 239.536 205.862 239.437C205.893 239.339 205.945 239.248 206.012 239.17C206.188 239.049 206.403 238.998 206.615 239.025C206.826 239.052 207.021 239.156 207.16 239.318C207.264 239.418 207.341 239.541 207.388 239.677C207.435 239.813 207.449 239.958 207.43 240.101C207.408 240.231 207.344 240.35 207.248 240.44V240.422Z" fill="#A6A6A6"/>
<path d="M214.268 240.893C214.275 240.885 214.283 240.879 214.292 240.875C214.301 240.871 214.311 240.869 214.321 240.869C214.33 240.869 214.34 240.871 214.349 240.875C214.358 240.879 214.366 240.885 214.373 240.893C214.624 241.081 214.928 241.188 215.243 241.197C215.419 241.206 215.592 241.15 215.73 241.04C215.783 241.001 215.824 240.948 215.847 240.886C215.87 240.824 215.875 240.757 215.86 240.692C215.844 240.622 215.813 240.557 215.767 240.501C215.722 240.445 215.665 240.401 215.6 240.371C215.415 240.27 215.215 240.202 215.008 240.17C214.796 240.145 214.592 240.077 214.407 239.97C214.326 239.93 214.255 239.872 214.198 239.802C214.141 239.731 214.1 239.649 214.077 239.561C214.059 239.48 214.064 239.395 214.092 239.317C214.119 239.239 214.168 239.169 214.234 239.118C214.383 238.997 214.572 238.935 214.764 238.944C215.047 238.965 215.319 239.058 215.556 239.214C215.568 239.23 215.574 239.249 215.574 239.27C215.574 239.29 215.568 239.31 215.556 239.326C215.55 239.334 215.543 239.339 215.535 239.344C215.527 239.348 215.518 239.35 215.508 239.35C215.499 239.35 215.49 239.348 215.481 239.344C215.473 239.339 215.466 239.334 215.46 239.326C215.251 239.183 215.008 239.096 214.756 239.074C214.594 239.07 214.435 239.118 214.303 239.214C214.254 239.252 214.218 239.303 214.196 239.362C214.174 239.42 214.169 239.483 214.181 239.544C214.2 239.606 214.232 239.663 214.274 239.713C214.316 239.762 214.367 239.802 214.425 239.831C214.594 239.921 214.776 239.983 214.964 240.014C215.193 240.045 215.415 240.119 215.617 240.231C215.704 240.276 215.781 240.338 215.843 240.415C215.904 240.491 215.948 240.58 215.974 240.675C215.99 240.763 215.983 240.854 215.953 240.938C215.922 241.023 215.869 241.097 215.799 241.153C215.638 241.279 215.438 241.344 215.234 241.336C214.892 241.316 214.563 241.198 214.286 240.997C214.272 240.984 214.262 240.967 214.259 240.948C214.256 240.929 214.259 240.909 214.268 240.893Z" fill="#A6A6A6"/>
<path d="M216.4 240.501C216.371 240.403 216.365 240.301 216.384 240.2C216.403 240.101 216.445 240.006 216.507 239.926C216.569 239.845 216.649 239.78 216.741 239.737C216.833 239.693 216.933 239.672 217.035 239.674C217.256 239.687 217.467 239.768 217.639 239.907C217.81 240.046 217.934 240.236 217.992 240.449C217.993 240.459 217.992 240.469 217.99 240.478C217.987 240.487 217.982 240.496 217.975 240.504C217.969 240.511 217.96 240.517 217.951 240.521C217.942 240.525 217.932 240.527 217.923 240.527H216.6C216.648 240.7 216.748 240.853 216.887 240.967C217.025 241.081 217.196 241.149 217.374 241.162C217.475 241.169 217.575 241.142 217.659 241.088C217.744 241.033 217.809 240.952 217.844 240.857C217.859 240.845 217.877 240.838 217.897 240.838C217.916 240.838 217.934 240.845 217.948 240.857C217.97 240.867 217.986 240.884 217.996 240.904C218.005 240.925 218.007 240.949 218.001 240.971C217.952 241.087 217.869 241.185 217.764 241.253C217.658 241.322 217.535 241.356 217.409 241.353C217.17 241.345 216.94 241.256 216.757 241.102C216.574 240.947 216.449 240.736 216.4 240.501ZM216.548 240.371H217.801C217.74 240.222 217.64 240.093 217.511 239.998C217.382 239.902 217.229 239.845 217.07 239.831C216.999 239.828 216.929 239.841 216.863 239.867C216.797 239.893 216.738 239.934 216.689 239.984C216.639 240.035 216.602 240.096 216.577 240.162C216.553 240.229 216.543 240.3 216.548 240.371Z" fill="#A6A6A6"/>
<path d="M219.819 239.753L220.132 241.249C220.135 241.259 220.135 241.269 220.133 241.279C220.132 241.289 220.128 241.298 220.122 241.306C220.116 241.315 220.109 241.322 220.1 241.327C220.091 241.332 220.082 241.335 220.071 241.336C220.048 241.333 220.027 241.323 220.01 241.307C219.993 241.292 219.981 241.272 219.976 241.249L219.923 241.005C219.87 241.106 219.789 241.19 219.691 241.248C219.593 241.306 219.481 241.337 219.367 241.336C219.134 241.316 218.913 241.221 218.74 241.064C218.567 240.906 218.451 240.696 218.41 240.466C218.378 240.371 218.369 240.27 218.384 240.171C218.399 240.072 218.438 239.979 218.497 239.898C218.555 239.817 218.633 239.751 218.722 239.706C218.811 239.661 218.91 239.638 219.01 239.639C219.142 239.644 219.271 239.675 219.39 239.731C219.51 239.786 219.617 239.864 219.706 239.961L219.654 239.718C219.654 239.666 219.654 239.639 219.715 239.639C219.73 239.638 219.745 239.64 219.759 239.645C219.772 239.65 219.785 239.659 219.796 239.67C219.806 239.681 219.813 239.694 219.817 239.708C219.821 239.722 219.822 239.738 219.819 239.753ZM219.819 240.501C219.778 240.323 219.682 240.163 219.544 240.042C219.407 239.922 219.235 239.848 219.053 239.831C218.973 239.832 218.895 239.853 218.824 239.89C218.753 239.927 218.692 239.981 218.646 240.046C218.599 240.111 218.569 240.186 218.557 240.265C218.544 240.344 218.55 240.425 218.575 240.501C218.616 240.679 218.712 240.839 218.85 240.959C218.987 241.079 219.159 241.153 219.34 241.17C219.42 241.168 219.497 241.146 219.567 241.109C219.636 241.071 219.696 241.017 219.742 240.952C219.788 240.888 219.817 240.813 219.829 240.734C219.841 240.656 219.834 240.576 219.81 240.501H219.819Z" fill="#A6A6A6"/>
<path d="M220.523 239.753C220.52 239.743 220.52 239.732 220.522 239.721C220.524 239.711 220.529 239.702 220.536 239.694C220.543 239.686 220.552 239.68 220.562 239.677C220.572 239.673 220.583 239.673 220.593 239.674C220.615 239.677 220.636 239.685 220.653 239.699C220.669 239.713 220.682 239.732 220.689 239.753L220.767 240.118C220.81 239.998 220.889 239.895 220.994 239.821C221.098 239.748 221.223 239.709 221.35 239.709C221.372 239.71 221.393 239.718 221.411 239.733C221.428 239.747 221.44 239.766 221.446 239.787C221.446 239.84 221.446 239.875 221.385 239.875C221.296 239.874 221.208 239.9 221.133 239.947C221.057 239.995 220.997 240.063 220.958 240.144C220.9 240.265 220.862 240.394 220.846 240.527L221.002 241.258C221.002 241.31 221.002 241.345 220.941 241.345C220.917 241.342 220.895 241.333 220.876 241.317C220.857 241.302 220.844 241.281 220.837 241.258L220.523 239.753Z" fill="#A6A6A6"/>
<path d="M221.968 240.501C221.94 240.4 221.936 240.294 221.957 240.191C221.979 240.088 222.025 239.992 222.092 239.911C222.158 239.83 222.244 239.766 222.34 239.725C222.437 239.683 222.542 239.666 222.647 239.674C222.849 239.676 223.046 239.74 223.212 239.857C223.224 239.874 223.231 239.893 223.231 239.913C223.231 239.934 223.224 239.954 223.212 239.97C223.196 239.983 223.176 239.991 223.155 239.991C223.135 239.991 223.114 239.983 223.099 239.97C222.964 239.875 222.803 239.823 222.638 239.822C222.553 239.816 222.468 239.831 222.391 239.865C222.313 239.898 222.244 239.95 222.191 240.016C222.137 240.081 222.1 240.159 222.082 240.242C222.065 240.325 222.067 240.41 222.09 240.492C222.136 240.687 222.247 240.859 222.406 240.982C222.564 241.104 222.76 241.168 222.96 241.162C223.107 241.165 223.25 241.112 223.36 241.014C223.376 241.001 223.396 240.993 223.417 240.993C223.437 240.993 223.457 241.001 223.473 241.014C223.473 241.014 223.473 241.101 223.473 241.127C223.34 241.249 223.166 241.315 222.986 241.31C222.751 241.303 222.526 241.22 222.343 241.074C222.159 240.928 222.028 240.728 221.968 240.501Z" fill="#A6A6A6"/>
<path d="M225.204 240.327C225.167 240.187 225.085 240.062 224.97 239.974C224.855 239.886 224.714 239.839 224.569 239.84C224.506 239.831 224.441 239.839 224.382 239.861C224.323 239.884 224.27 239.921 224.228 239.97C224.187 240.019 224.158 240.076 224.144 240.139C224.131 240.201 224.133 240.266 224.151 240.327L224.343 241.249C224.329 241.255 224.314 241.255 224.299 241.249H224.23L224.038 240.327L223.769 239.065C223.766 239.056 223.765 239.046 223.767 239.037C223.769 239.027 223.773 239.018 223.779 239.011C223.785 239.003 223.792 238.996 223.802 238.992C223.81 238.988 223.82 238.986 223.83 238.987C223.853 238.986 223.877 238.993 223.896 239.008C223.914 239.022 223.928 239.042 223.934 239.065L224.125 239.935C224.176 239.857 224.245 239.793 224.328 239.751C224.41 239.708 224.502 239.688 224.595 239.692C224.793 239.685 224.987 239.747 225.145 239.865C225.303 239.984 225.416 240.153 225.465 240.344L225.656 241.267C225.659 241.276 225.659 241.286 225.658 241.296C225.656 241.306 225.652 241.315 225.646 241.324C225.641 241.332 225.633 241.339 225.624 241.344C225.616 241.349 225.605 241.352 225.596 241.353C225.571 241.352 225.548 241.343 225.529 241.327C225.51 241.311 225.497 241.29 225.491 241.267L225.204 240.327Z" fill="#A6A6A6"/>
<path d="M227.04 240.501C227.012 240.4 227.008 240.294 227.03 240.191C227.052 240.088 227.097 239.992 227.164 239.911C227.231 239.83 227.316 239.766 227.413 239.725C227.509 239.683 227.614 239.666 227.719 239.674C227.922 239.676 228.119 239.74 228.284 239.857C228.296 239.874 228.303 239.893 228.303 239.913C228.303 239.934 228.296 239.954 228.284 239.97C228.268 239.983 228.248 239.991 228.228 239.991C228.207 239.991 228.187 239.983 228.171 239.97C228.036 239.875 227.875 239.823 227.71 239.822C227.625 239.816 227.54 239.831 227.463 239.865C227.385 239.898 227.316 239.95 227.263 240.016C227.209 240.081 227.172 240.159 227.154 240.242C227.137 240.325 227.139 240.41 227.162 240.492C227.208 240.687 227.319 240.859 227.477 240.982C227.636 241.104 227.832 241.168 228.032 241.162C228.179 241.165 228.322 241.112 228.432 241.014C228.448 241.001 228.468 240.993 228.488 240.993C228.509 240.993 228.529 241.001 228.545 241.014C228.545 241.014 228.545 241.101 228.545 241.127C228.412 241.249 228.238 241.315 228.058 241.31C227.824 241.303 227.598 241.22 227.415 241.074C227.231 240.928 227.1 240.728 227.04 240.501Z" fill="#A6A6A6"/>
<path d="M230.233 240.327C230.196 240.187 230.114 240.063 229.999 239.974C229.884 239.886 229.743 239.839 229.598 239.84C229.535 239.831 229.47 239.839 229.411 239.861C229.351 239.884 229.299 239.921 229.257 239.97C229.215 240.019 229.187 240.076 229.173 240.139C229.16 240.201 229.162 240.266 229.18 240.327L229.372 241.249C229.357 241.255 229.342 241.255 229.328 241.249H229.258L229.058 240.327L228.78 239.039C228.777 239.03 228.777 239.02 228.778 239.011C228.78 239.001 228.784 238.992 228.79 238.984C228.796 238.977 228.804 238.971 228.813 238.966C228.822 238.962 228.831 238.961 228.841 238.961C228.865 238.96 228.888 238.967 228.907 238.982C228.926 238.996 228.94 239.016 228.945 239.039L229.128 239.909C229.181 239.832 229.252 239.768 229.336 239.726C229.419 239.683 229.513 239.663 229.607 239.666C229.804 239.66 229.998 239.72 230.156 239.839C230.314 239.958 230.427 240.127 230.477 240.318L230.668 241.24C230.67 241.251 230.671 241.262 230.668 241.272C230.666 241.283 230.661 241.293 230.655 241.301C230.648 241.309 230.639 241.316 230.63 241.321C230.62 241.326 230.609 241.328 230.598 241.328C230.575 241.325 230.554 241.314 230.537 241.299C230.519 241.283 230.508 241.263 230.503 241.24L230.233 240.327Z" fill="#A6A6A6"/>
<path d="M232.495 239.753L232.808 241.249C232.811 241.259 232.811 241.269 232.809 241.279C232.808 241.289 232.804 241.298 232.798 241.307C232.792 241.315 232.785 241.322 232.776 241.327C232.767 241.332 232.758 241.335 232.747 241.336C232.724 241.333 232.703 241.323 232.686 241.307C232.669 241.292 232.657 241.272 232.652 241.249L232.599 241.005C232.546 241.106 232.465 241.19 232.367 241.249C232.269 241.306 232.157 241.337 232.043 241.336C231.809 241.316 231.588 241.22 231.414 241.063C231.24 240.906 231.121 240.696 231.077 240.466C231.047 240.37 231.04 240.269 231.056 240.171C231.072 240.072 231.112 239.979 231.171 239.898C231.23 239.818 231.308 239.752 231.398 239.707C231.487 239.662 231.586 239.639 231.686 239.639C231.818 239.644 231.947 239.675 232.066 239.731C232.186 239.786 232.293 239.864 232.382 239.962L232.33 239.718C232.33 239.666 232.33 239.639 232.39 239.639C232.419 239.642 232.446 239.654 232.465 239.676C232.484 239.697 232.495 239.724 232.495 239.753ZM232.495 240.501C232.454 240.323 232.358 240.163 232.22 240.042C232.083 239.922 231.911 239.848 231.729 239.831C231.649 239.833 231.571 239.853 231.5 239.89C231.429 239.927 231.368 239.981 231.322 240.046C231.275 240.111 231.245 240.186 231.232 240.265C231.22 240.344 231.226 240.425 231.251 240.501C231.292 240.679 231.388 240.839 231.526 240.96C231.663 241.08 231.835 241.154 232.016 241.171C232.096 241.168 232.173 241.147 232.243 241.109C232.312 241.071 232.372 241.017 232.418 240.952C232.463 240.888 232.493 240.813 232.505 240.735C232.517 240.656 232.51 240.576 232.486 240.501H232.495Z" fill="#A6A6A6"/>
<path d="M233.774 239.753C233.776 239.762 233.777 239.772 233.775 239.781C233.773 239.791 233.769 239.8 233.763 239.808C233.757 239.815 233.75 239.821 233.741 239.825C233.732 239.83 233.723 239.831 233.713 239.831H233.504L233.756 241.04C233.764 241.074 233.783 241.104 233.81 241.127C233.836 241.148 233.87 241.161 233.904 241.162C233.928 241.165 233.95 241.175 233.969 241.191C233.987 241.206 234.001 241.226 234.009 241.249C234.012 241.26 234.012 241.271 234.01 241.281C234.007 241.292 234.002 241.301 233.995 241.31C233.989 241.318 233.98 241.325 233.97 241.33C233.961 241.334 233.95 241.337 233.939 241.336C233.855 241.335 233.775 241.305 233.711 241.251C233.648 241.197 233.605 241.123 233.591 241.04L233.33 239.831H233.13C233.051 239.831 233.043 239.831 233.034 239.753C233.026 239.674 233.034 239.674 233.095 239.674H233.304L233.173 239.057C233.171 239.047 233.17 239.037 233.172 239.027C233.174 239.017 233.178 239.007 233.184 238.999C233.189 238.991 233.197 238.984 233.206 238.979C233.215 238.974 233.224 238.971 233.234 238.97C233.234 238.97 233.339 239.013 233.339 239.057L233.478 239.674H233.687C233.707 239.677 233.727 239.686 233.742 239.7C233.758 239.714 233.769 239.732 233.774 239.753Z" fill="#A6A6A6"/>
<path d="M260.039 245.216H200.105V245.434H260.039V245.216Z" fill="#A6A6A6"/>
<path d="M257.873 235.002H197.938V235.22H257.873V235.002Z" fill="#A6A6A6"/>
<path d="M224.499 347.067H203.715V350.312H224.499V347.067Z" fill="#165C5D"/>
<path opacity="0.1" d="M224.499 347.067H203.715V349.208H224.499V347.067Z" fill="black"/>
<path d="M179.042 338.35C180.493 340.554 182.659 342.19 185.176 342.982C187.693 343.775 190.406 343.675 192.858 342.7C193.89 342.293 194.876 341.777 195.798 341.16L193.188 337.245C192.698 337.584 192.177 337.875 191.631 338.115C186.681 340.359 183.549 336.462 182.931 335.566C180.077 331.564 179.059 322.42 181.948 318.905C182.139 318.644 182.974 318.226 186.298 318.905C186.916 319.045 187.612 319.201 188.403 319.419C189.02 319.63 189.659 319.767 190.309 319.827L190.387 317.478L190.622 315.129C190.404 315.129 190.065 314.999 189.63 314.877C188.081 314.425 186.498 314.096 184.897 313.894C182.435 313.642 179.86 313.894 178.276 315.878C173.578 321.706 175.475 333.33 179.042 338.35Z" fill="#165C5D"/>
<path opacity="0.1" d="M193.153 337.288C192.664 337.628 192.142 337.919 191.596 338.158L192.858 342.734C193.89 342.329 194.876 341.812 195.798 341.195L193.153 337.288Z" fill="black"/>
<path opacity="0.1" d="M184.888 313.981L186.289 318.992C186.907 319.131 187.603 319.288 188.395 319.505C189.011 319.717 189.651 319.854 190.3 319.915L190.378 317.565L190.613 315.216C190.396 315.216 190.056 315.086 189.621 314.964C188.072 314.512 186.49 314.183 184.888 313.981Z" fill="black"/>
<path d="M241.751 307.847C241.751 307.847 239.263 329.032 234.957 337.959C230.65 346.885 224.639 347.859 220.898 347.859H207.317C203.576 347.859 197.564 346.867 193.258 337.959C188.951 329.05 186.463 307.847 186.463 307.847H241.751Z" fill="#165C5D"/>
<path d="M354.643 256.187H475.268V205.771H354.643V256.187Z" fill="#455A64"/>
<path d="M475.268 220.639V205.771H490.746L475.268 220.639Z" fill="#455A64"/>
<path d="M466.063 214.488H363.839V215.445H466.063V214.488Z" fill="white"/>
<path d="M436.553 219.656H363.839V220.613H436.553V219.656Z" fill="white"/>
<path d="M454.379 230.009H363.839V230.966H454.379V230.009Z" fill="white"/>
<path d="M466.063 235.177H363.839V236.133H466.063V235.177Z" fill="white"/>
<path d="M466.063 240.353H363.839V241.31H466.063V240.353Z" fill="white"/>
<path d="M426.687 245.53H363.839V246.486H426.687V245.53Z" fill="white"/>
<path d="M458.773 112.837H338.148V155.38H458.773V112.837Z" fill="#165C5D"/>
<path d="M338.165 127.714V112.837H322.679L338.165 127.714Z" fill="#165C5D"/>
<path d="M425.992 120.693H347.526V121.65H425.992V120.693Z" fill="white"/>
<path d="M449.751 125.87H347.526V126.826H449.751V125.87Z" fill="white"/>
<path d="M449.751 131.046H347.526V132.003H449.751V131.046Z" fill="white"/>
<path d="M438.493 136.214H347.526V137.171H438.493V136.214Z" fill="white"/>
<path d="M449.751 141.39H347.526V142.347H449.751V141.39Z" fill="white"/>
<path d="M412.628 146.567H347.526V147.524H412.628V146.567Z" fill="white"/>
<path d="M458.773 162.262H338.148V193.808H458.773V162.262Z" fill="#165C5D"/>
<path d="M338.165 177.13V162.262H322.679L338.165 177.13Z" fill="#165C5D"/>
<path d="M449.499 170.118H347.526V171.075H449.499V170.118Z" fill="white"/>
<path d="M424.39 175.294H347.526V176.251H424.39V175.294Z" fill="white"/>
<path d="M436.127 180.462H347.526V181.419H436.127V180.462Z" fill="white"/>
<path d="M406.738 185.639H347.526V186.596H406.738V185.639Z" fill="white"/>
<path d="M458.773 265.992H338.148V295.093H458.773V265.992Z" fill="#165C5D"/>
<path d="M338.148 280.86V265.992H322.661L338.148 280.86Z" fill="#165C5D"/>
<path d="M441.851 273.848H347.526V274.805H441.851V273.848Z" fill="white"/>
<path d="M417.422 279.016H347.526V279.973H417.422V279.016Z" fill="white"/>
<path d="M435.292 284.192H347.526V285.149H435.292V284.192Z" fill="white"/>
<path d="M523.423 234.846C538.808 234.846 551.28 222.374 551.28 206.989C551.28 191.603 538.808 179.131 523.423 179.131C508.038 179.131 495.565 191.603 495.565 206.989C495.565 222.374 508.038 234.846 523.423 234.846Z" fill="#A6A6A6"/>
<mask id="mask0_134_243" style="mask-type:luminance" maskUnits="userSpaceOnUse" x="495" y="169" width="57" height="66">
<path d="M551.289 206.988C551.296 211.052 550.411 215.067 548.696 218.75C546.981 222.433 544.477 225.695 541.362 228.303C539.303 230.035 537.006 231.462 534.541 232.541C534.254 232.671 533.959 232.793 533.671 232.906L533.193 233.088C531.617 233.688 529.985 234.128 528.321 234.402C526.715 234.705 525.084 234.853 523.449 234.846C522.478 234.847 521.508 234.794 520.543 234.689C520.129 234.659 519.717 234.606 519.308 234.533C518.82 234.463 518.334 234.385 517.846 234.272C517.696 234.253 517.547 234.221 517.403 234.176C516.672 234.028 515.941 233.837 515.228 233.62C514.514 233.402 513.696 233.106 512.948 232.801L512.765 232.714C512.621 232.67 512.481 232.611 512.348 232.541C511.426 232.149 510.532 231.698 509.668 231.192C505.717 228.948 502.375 225.772 499.935 221.94C497.494 218.108 496.028 213.736 495.665 209.208C495.302 204.678 496.053 200.13 497.853 195.958C499.652 191.786 502.445 188.118 505.988 185.274C506.275 184.203 506.571 183.177 506.858 182.237C502.047 178.975 504.178 172.798 505.031 171.493C505.884 170.188 508.894 173.354 508.894 173.354C508.894 173.354 509.86 169.509 510.964 169.265C512.069 169.022 512.852 171.554 512.852 171.554C512.852 171.554 521.091 170.074 528.208 171.336C535.324 172.598 537.778 180.314 537.778 180.314C537.778 180.314 541.475 181.68 542.302 184.534C542.434 185.174 542.434 185.834 542.302 186.474C545.139 189.085 547.402 192.256 548.949 195.788C550.496 199.319 551.293 203.133 551.289 206.988Z" fill="white"/>
</mask>
<g mask="url(#mask0_134_243)">
<path d="M515.454 225.45L517.916 236.621L535.943 223.301L542.407 229.252C542.407 229.252 527.93 246.138 516.185 246.138C510.025 246.138 508.816 232.001 508.816 232.001L515.454 225.45Z" fill="#165C5D"/>
<path d="M518.273 238.152C522.805 239.561 531.201 233.071 534.716 227.581C534.951 227.207 534.637 223.04 534.498 217.968C534.42 214.888 534.411 211.452 534.628 208.319C534.681 207.676 514.618 211.73 514.618 211.73C515.471 215.731 515.828 219.822 515.68 223.91C515.648 224.343 515.571 224.771 515.454 225.189C515.454 225.241 515.454 225.319 515.454 225.398C514.88 227.79 513.896 236.786 518.273 238.152Z" fill="#EB9481"/>
<path d="M533.48 208.302C532.115 213.766 527.808 226.189 517.464 225.703C516.788 225.674 516.116 225.589 515.454 225.45C515.454 225.372 515.454 225.294 515.454 225.241C515.577 224.824 515.652 224.395 515.68 223.962V223.91C515.803 221.88 515.757 219.843 515.541 217.82C515.336 215.808 515.028 213.807 514.618 211.826L514.749 211.739C516.324 211.399 529.461 208.755 533.48 208.302Z" fill="#263238"/>
<path d="M536.334 183.377C538.752 190.267 535.925 210.573 531.158 215.28C524.241 222.101 512.487 223.223 506.589 214.81C500.864 206.658 505.014 180.254 510.382 175.93C518.299 169.57 532.75 173.206 536.334 183.377Z" fill="#EB9481"/>
<path d="M534.542 200.42C529.783 199.698 530.14 190.92 530.14 190.92C530.14 190.92 522.162 188.362 521.883 182.037C521.883 182.037 513.392 185.839 507.624 182.724C501.856 179.61 504.144 172.902 505.014 171.527C505.884 170.153 508.877 173.389 508.877 173.389C508.877 173.389 509.843 169.544 510.947 169.3C512.052 169.057 512.835 171.588 512.835 171.588C512.835 171.588 521.083 170.118 528.182 171.371C535.281 172.623 537.752 180.349 537.752 180.349C537.752 180.349 541.441 181.724 542.285 184.577C543.129 187.431 537.569 200.846 534.542 200.42Z" fill="#263238"/>
<path d="M516.75 197.453C516.75 197.401 516.846 197.532 516.837 197.584C516.611 198.95 516.576 200.55 517.76 201.168C517.76 201.168 517.76 201.255 517.76 201.247C516.289 200.829 516.35 198.68 516.75 197.453Z" fill="#263238"/>
<path d="M518.194 196.183C520.422 196.314 520.004 200.751 517.942 200.637C515.88 200.524 516.333 196.07 518.194 196.183Z" fill="#263238"/>
<path d="M508.798 196.94C508.798 196.888 508.685 196.992 508.685 197.053C508.598 198.428 508.268 199.994 506.945 200.333V200.411C508.52 200.324 508.92 198.245 508.798 196.94Z" fill="#263238"/>
<path d="M507.711 195.365C505.51 194.991 504.918 199.411 506.954 199.759C508.99 200.107 509.547 195.687 507.711 195.365Z" fill="#263238"/>
<path d="M520.143 194.33C519.577 194.103 519.022 193.848 518.482 193.564C517.856 193.374 517.312 192.983 516.933 192.451C516.846 192.261 516.824 192.048 516.871 191.845C516.918 191.642 517.032 191.46 517.194 191.328C517.553 191.119 517.962 191.009 518.377 191.009C518.793 191.009 519.201 191.119 519.561 191.328C520.357 191.641 521.01 192.236 521.396 192.999C521.467 193.177 521.485 193.372 521.449 193.56C521.413 193.749 521.324 193.923 521.193 194.063C521.061 194.203 520.893 194.302 520.707 194.349C520.521 194.396 520.325 194.39 520.143 194.33Z" fill="#263238"/>
<path d="M506.206 192.973C506.814 192.909 507.418 192.81 508.016 192.677C508.665 192.667 509.292 192.44 509.799 192.033C509.935 191.875 510.014 191.676 510.023 191.468C510.033 191.26 509.972 191.055 509.851 190.885C509.566 190.582 509.205 190.361 508.806 190.245C508.407 190.129 507.983 190.122 507.581 190.224C506.729 190.31 505.939 190.706 505.362 191.337C505.241 191.49 505.166 191.673 505.148 191.867C505.129 192.06 505.166 192.255 505.255 192.428C505.344 192.601 505.482 192.744 505.65 192.841C505.819 192.938 506.012 192.983 506.206 192.973Z" fill="#263238"/>
<path d="M516.846 210.338C516.489 210.625 516.115 211.034 515.61 211.034C515.101 210.971 514.61 210.805 514.166 210.547C514.166 210.547 514.079 210.547 514.105 210.608C514.275 210.897 514.519 211.136 514.814 211.297C515.108 211.458 515.441 211.535 515.776 211.521C516.064 211.476 516.332 211.345 516.545 211.147C516.759 210.949 516.909 210.691 516.976 210.407C517.002 210.329 516.898 210.295 516.846 210.338Z" fill="#263238"/>
<path d="M515.802 206.162C515.394 206.668 514.886 207.084 514.31 207.383C513.733 207.683 513.101 207.859 512.453 207.902C511.885 207.948 511.314 207.916 510.756 207.806L510.434 207.737L510.138 207.658C510.067 207.635 510.005 207.589 509.961 207.528C509.918 207.467 509.894 207.394 509.894 207.319C509.89 207.273 509.89 207.226 509.894 207.18V207.067C509.973 205.997 510.251 204.396 510.251 204.396C509.843 204.552 507.772 205.266 507.859 204.683C508.625 200.124 509.468 195.061 511.182 190.693C511.193 190.663 511.215 190.638 511.243 190.622C511.271 190.607 511.305 190.603 511.336 190.61C511.367 190.618 511.395 190.637 511.413 190.664C511.431 190.69 511.439 190.723 511.435 190.754C510.878 195.157 509.547 199.454 508.92 203.857C509.655 203.601 510.423 203.452 511.199 203.413C511.347 203.473 510.617 206.501 510.617 206.98V207.032C512.357 207.449 513.775 207.032 515.628 206.04C515.793 205.953 515.88 206.058 515.802 206.162Z" fill="#263238"/>
<path d="M511.452 207.511C511.989 208.308 512.723 208.952 513.583 209.381C514.055 209.603 514.585 209.67 515.097 209.573C516.22 209.346 516.307 208.337 516.159 207.459C516.074 206.992 515.937 206.537 515.75 206.101C514.504 207.018 512.998 207.512 511.452 207.511Z" fill="#263238"/>
<path d="M513.583 209.381C514.055 209.603 514.585 209.67 515.097 209.572C516.219 209.346 516.307 208.337 516.159 207.458C515.576 207.446 515.007 207.628 514.54 207.976C514.073 208.325 513.736 208.819 513.583 209.381Z" fill="#FF99BA"/>
<path d="M532.723 199.985C532.723 199.985 537.134 193.364 540.127 194.922C543.12 196.479 539.909 206.014 536.465 207.388C536.034 207.593 535.567 207.709 535.091 207.729C534.614 207.749 534.139 207.673 533.693 207.505C533.247 207.337 532.84 207.08 532.495 206.751C532.15 206.421 531.876 206.026 531.688 205.588L532.723 199.985Z" fill="#EB9481"/>
<path d="M539.144 197.706C539.196 197.706 539.205 197.775 539.144 197.801C536.725 198.837 535.498 201.125 534.655 203.491C535.359 202.569 536.334 202.056 537.561 202.891C537.622 202.934 537.561 203.039 537.5 203.021C537.068 202.894 536.607 202.904 536.182 203.051C535.756 203.197 535.386 203.473 535.124 203.839C534.683 204.447 534.312 205.104 534.02 205.797C533.906 206.014 533.515 205.91 533.593 205.657C533.59 205.638 533.59 205.617 533.593 205.597C533.498 202.491 535.812 198.097 539.144 197.706Z" fill="#263238"/>
<path d="M515.68 224.04L518.098 235.594L534.725 220.743L538.866 225.406C538.866 225.406 522.649 248.896 522.545 247.844L517.62 237.899L510.791 244.929L513.531 227.459L515.68 224.04Z" fill="white"/>
<path d="M513.418 227.625C513.418 227.52 513.618 227.468 513.618 227.625C513.462 231.192 511.191 241.423 511.234 244.068C511.522 243.763 517.559 237.873 517.629 237.978C518.682 239.553 522.275 246.791 522.519 247.452C524.815 244.068 535.482 230.157 538.083 226.624C538.096 226.601 538.117 226.584 538.142 226.577C538.168 226.569 538.195 226.572 538.217 226.585C538.241 226.598 538.258 226.619 538.265 226.644C538.272 226.67 538.269 226.697 538.257 226.72C536.325 230.652 522.849 248.922 522.675 248.87C520.804 245.433 519.117 241.898 517.62 238.283C516.602 239.561 510.512 246.199 510.486 245.773C510.269 242.885 512.444 231.201 513.418 227.625Z" fill="#263238"/>
</g>
<path d="M310.423 282.354C321.492 271.284 321.492 253.337 310.423 242.268C299.354 231.199 281.407 231.199 270.338 242.268C259.269 253.337 259.269 271.284 270.338 282.354C281.407 293.422 299.354 293.422 310.423 282.354Z" fill="#A6A6A6"/>
<mask id="mask1_134_243" style="mask-type:luminance" maskUnits="userSpaceOnUse" x="262" y="227" width="57" height="64">
<path d="M318.738 262.303C318.746 267.27 317.449 272.151 314.977 276.459C312.506 280.766 308.946 284.349 304.655 286.849C300.363 289.348 295.49 290.677 290.524 290.701C285.557 290.725 280.672 289.445 276.356 286.988C272.04 284.531 268.445 280.983 265.932 276.7C263.418 272.417 262.073 267.548 262.032 262.582C261.991 257.616 263.255 252.726 265.698 248.402C268.141 244.078 271.677 240.471 275.951 237.943C277.265 233.715 280.684 229.687 288.288 227.782C303.182 224.058 306.488 234.803 306.801 235.968C306.801 235.968 306.801 235.968 306.801 236.012C306.805 236.026 306.805 236.041 306.801 236.055C307.321 237.431 307.765 238.834 308.133 240.257C311.439 242.903 314.109 246.257 315.945 250.073C317.78 253.889 318.735 258.069 318.738 262.303Z" fill="white"/>
</mask>
<g mask="url(#mask1_134_243)">
<path d="M298.502 281.095L295.988 292.405L278.848 280.643L274.594 286.924C274.594 286.924 285.808 302.097 297.754 302.097C304.026 302.097 305.253 287.716 305.253 287.716L298.502 281.095Z" fill="#165C5D"/>
<path d="M295.631 294.015C291.02 295.45 282.476 288.847 278.901 283.261C278.657 282.879 278.979 278.642 279.127 273.474C279.196 270.342 279.214 266.853 278.988 263.669C278.944 263.008 281.249 264.06 281.249 264.06L285.443 264.765L299.311 267.14C299.311 267.14 297.815 273.953 298.232 279.503C298.264 279.945 298.34 280.382 298.458 280.808C298.458 280.869 298.458 280.938 298.458 281.017C299.076 283.479 300.12 292.64 295.631 294.015Z" fill="#EB9481"/>
<path d="M298.458 280.878C298.458 280.938 298.458 281.008 298.458 281.096C297.784 281.235 297.101 281.319 296.413 281.348C282.928 281.983 280.066 264.983 280.066 264.983L285.399 264.844L299.267 267.21C299.267 267.21 297.771 274.031 298.189 279.582C298.234 280.022 298.324 280.456 298.458 280.878Z" fill="#263238"/>
<path d="M277.256 238.291C274.794 245.295 277.665 265.957 282.52 270.751C289.558 277.711 301.512 278.833 307.524 270.272C313.344 261.973 309.116 235.107 303.652 230.714C295.604 224.241 280.901 227.938 277.256 238.291Z" fill="#EB9481"/>
<path d="M297.145 252.62C297.145 252.568 297.049 252.699 297.057 252.751C297.283 254.143 297.319 255.77 296.118 256.396C296.118 256.396 296.118 256.492 296.118 256.474C297.649 256.048 297.588 253.882 297.145 252.62Z" fill="#263238"/>
<path d="M295.709 251.324C293.447 251.455 293.873 255.97 295.97 255.848C298.067 255.726 297.606 251.211 295.709 251.324Z" fill="#263238"/>
<path d="M305.261 252.072C305.261 252.012 305.383 252.124 305.383 252.185C305.47 253.586 305.81 255.178 307.123 255.526V255.604C305.549 255.535 305.122 253.412 305.261 252.072Z" fill="#263238"/>
<path d="M306.375 250.489C308.611 250.106 309.211 254.604 307.141 254.961C305.07 255.317 304.47 250.811 306.375 250.489Z" fill="#263238"/>
<path d="M293.725 249.428C294.326 249.21 294.848 248.914 295.422 248.644C296.055 248.45 296.605 248.053 296.988 247.514C297.077 247.322 297.099 247.105 297.052 246.899C297.005 246.693 296.89 246.508 296.727 246.374C296.362 246.16 295.946 246.047 295.522 246.047C295.098 246.047 294.683 246.16 294.317 246.374C293.506 246.687 292.842 247.292 292.455 248.07C292.383 248.252 292.364 248.449 292.4 248.641C292.436 248.833 292.526 249.01 292.659 249.152C292.793 249.295 292.964 249.396 293.153 249.445C293.341 249.494 293.54 249.488 293.725 249.428Z" fill="#263238"/>
<path d="M307.95 248.053C307.333 247.985 306.721 247.887 306.114 247.757C305.452 247.742 304.813 247.51 304.296 247.096C304.158 246.934 304.077 246.731 304.066 246.519C304.055 246.307 304.115 246.097 304.235 245.922C304.528 245.614 304.898 245.391 305.307 245.275C305.715 245.159 306.147 245.154 306.558 245.26C307.421 245.337 308.223 245.738 308.802 246.383C308.927 246.537 309.005 246.724 309.025 246.921C309.046 247.119 309.009 247.318 308.918 247.494C308.828 247.671 308.689 247.818 308.517 247.917C308.345 248.016 308.148 248.063 307.95 248.053Z" fill="#263238"/>
<path d="M297.084 265.714C297.449 266.009 297.823 266.427 298.336 266.427C298.856 266.366 299.357 266.198 299.807 265.931C299.811 265.926 299.815 265.923 299.821 265.92C299.827 265.917 299.833 265.916 299.839 265.915C299.845 265.915 299.851 265.916 299.856 265.918C299.862 265.92 299.867 265.923 299.872 265.927C299.876 265.931 299.88 265.935 299.883 265.941C299.886 265.947 299.887 265.953 299.888 265.959C299.888 265.965 299.887 265.971 299.885 265.976C299.883 265.982 299.88 265.987 299.876 265.992C299.701 266.292 299.445 266.539 299.138 266.703C298.831 266.867 298.484 266.943 298.136 266.923C297.844 266.876 297.572 266.743 297.356 266.542C297.139 266.341 296.987 266.08 296.918 265.792C296.927 265.714 297.031 265.67 297.084 265.714Z" fill="#263238"/>
<path d="M297.936 261.99C299.363 263.147 304.131 263.147 304.148 262.991L303.757 259.641C304.174 259.806 306.262 260.511 306.175 259.954C305.462 255.326 304.661 250.175 302.965 245.712C302.954 245.682 302.932 245.657 302.904 245.642C302.875 245.626 302.843 245.622 302.811 245.629C302.78 245.637 302.753 245.656 302.734 245.682C302.716 245.709 302.708 245.741 302.712 245.773C303.226 250.254 304.522 254.612 305.114 259.102C304.368 258.838 303.589 258.68 302.799 258.632C302.651 258.693 303.356 261.773 303.356 262.26C301.618 262.337 299.88 262.105 298.223 261.572C297.675 261.399 297.553 261.686 297.936 261.99Z" fill="#263238"/>
<path d="M279.771 254.978C281.511 254.534 283.198 248.749 283.251 243.129C283.251 239.518 284.729 234.959 288.758 233.602C291.437 232.732 296.1 234.907 298.763 234.254C301.425 233.602 301.921 232.079 303.495 232.123C305.07 232.167 306.828 236.038 306.828 236.038C306.828 236.038 304.017 223.806 288.288 227.738C271.758 231.888 275.046 246.078 276.638 250.628C277.874 254.143 279.771 254.978 279.771 254.978Z" fill="#263238"/>
<path d="M280.98 255.23C280.98 255.23 276.482 248.497 273.437 250.08C270.392 251.663 273.663 261.39 277.169 262.756C277.606 262.966 278.08 263.087 278.564 263.109C279.048 263.131 279.532 263.054 279.986 262.885C280.439 262.715 280.854 262.454 281.204 262.12C281.554 261.785 281.833 261.383 282.024 260.937L280.98 255.23Z" fill="#EB9481"/>
<path d="M274.403 252.864C274.393 252.868 274.385 252.874 274.38 252.883C274.374 252.891 274.371 252.902 274.371 252.912C274.371 252.922 274.374 252.932 274.38 252.94C274.385 252.949 274.393 252.955 274.403 252.959C276.865 254.021 278.118 256.352 278.979 258.754C278.257 257.823 277.239 257.292 276.021 258.145C275.951 258.145 276.021 258.293 276.082 258.275C276.521 258.148 276.989 258.159 277.421 258.307C277.854 258.455 278.231 258.732 278.5 259.102C278.94 259.727 279.316 260.394 279.623 261.094C279.727 261.32 280.136 261.216 280.058 260.955C280.053 260.935 280.053 260.914 280.058 260.894C280.11 257.736 277.787 253.264 274.403 252.864Z" fill="#263238"/>
</g>
<path d="M286 148.255C302.284 148.255 315.484 135.054 315.484 118.77C315.484 102.487 302.284 89.2861 286 89.2861C269.716 89.2861 256.516 102.487 256.516 118.77C256.516 135.054 269.716 148.255 286 148.255Z" fill="#A6A6A6"/>
<path d="M316.867 141.26H314.353C314.092 138.049 312.056 133.143 312.613 135.614C312.937 137.477 313.045 139.371 312.935 141.26H270.34C269.844 136.431 272.002 128.488 272.002 128.488C269.54 132.481 268.591 138.145 268.235 141.26H264.215C263.797 138.372 264.824 133.43 264.824 133.43C263.719 135.37 263.084 139.015 262.762 141.26H258.186C258.012 136.431 259.656 130.08 263.51 124.321C266.599 119.701 262.771 117.013 262.849 108.017C262.927 96.0461 271.14 91.4872 272.506 90.1993C291.081 72.9911 307.941 88.9643 309.751 100.335C311.491 111.454 308.298 112.924 313.466 123.025C317.372 130.568 316.867 141.26 316.867 141.26Z" fill="#263238"/>
<path d="M266.799 147.463C266.799 147.463 266.886 147.515 266.921 147.55C273.098 151.761 285.295 159.165 291.82 156.816C296.84 155.006 299.781 149.856 300.12 148.194C297.51 145.845 293.726 143.705 292.055 142.591C282.424 136.188 273.75 140.025 266.799 147.463Z" fill="#455A64"/>
<path d="M276.099 143.818C276.534 145.244 284.077 154.18 290.672 153.431C292.821 153.179 291.985 141.39 291.985 141.39L292.125 140.52L294.039 128.141L279.101 119.902L276.943 118.823C276.943 118.823 276.648 122.242 276.317 126.505L276.265 127.114C276.265 127.358 276.212 127.584 276.204 127.81C276.143 128.445 276.091 129.098 276.047 129.741C276.047 130.237 275.978 130.716 275.96 131.237C275.943 131.759 275.908 132.264 275.882 132.786C275.704 136.464 275.776 140.15 276.099 143.818Z" fill="#FFC4C0"/>
<path d="M276.317 126.47C277.777 129.813 279.948 132.798 282.678 135.218C285.408 137.638 288.631 139.435 292.125 140.486L294.039 128.105L279.101 119.867L276.943 118.788C276.943 118.788 276.63 122.233 276.317 126.47Z" fill="#263238"/>
<path d="M309.342 107.521C312.822 129.271 300.181 133.752 295.491 134.491C291.246 135.161 276.682 136.91 271.01 115.664C265.338 94.4189 274.342 85.9626 283.982 83.9094C293.621 81.8563 305.897 85.8151 309.342 107.521Z" fill="#FFC4C0"/>
<path d="M272.785 117.196C278.222 116.543 278.422 99.6481 278.422 97.5687C278.483 98.8823 278.866 105.799 279.423 106.034C280.004 105.969 280.571 105.81 281.102 105.564C281.041 104.736 281.041 103.904 281.102 103.076C281.102 102.693 281.319 103.893 281.65 105.373C281.954 105.259 282.277 105.129 282.633 105.007C282.426 103.245 282.455 101.463 282.72 99.709C282.824 99.0474 283.242 101.971 284.077 104.476C288.62 102.733 293.341 101.493 298.154 100.779C299.502 100.614 300.686 100.535 301.73 100.5C301.564 98.4559 301.147 96.307 301.338 96.7597C301.847 97.9569 302.237 99.201 302.504 100.474C303.069 100.474 303.592 100.474 304.061 100.474C303.966 97.5859 302.217 93.1055 302.73 93.7665C304.277 95.8192 305.422 98.1447 306.106 100.622C308.098 100.84 308.716 101.179 308.716 100.666C308.716 99.7437 306.976 91.7833 300.181 86.3891C292.829 80.5428 279.092 80.0555 272.245 90.5826C272.245 90.5826 266.277 95.2281 265.833 101.953C265.39 108.678 269.67 117.561 272.785 117.196Z" fill="#263238"/>
<path d="M300.277 120.171C299.813 121.115 299.115 121.924 298.25 122.52C297.764 122.828 297.197 122.98 296.622 122.955C295.37 122.877 295.117 121.798 295.152 120.815C295.175 120.297 295.257 119.783 295.396 119.284C296.886 120.095 298.596 120.406 300.277 120.171Z" fill="white"/>
<path d="M304.809 104.859C304.296 104.859 303.818 104.738 303.304 104.677C302.766 104.685 302.241 104.516 301.808 104.198C301.689 104.071 301.616 103.908 301.6 103.734C301.585 103.561 301.627 103.387 301.721 103.241C301.948 102.982 302.241 102.788 302.568 102.679C302.895 102.571 303.245 102.551 303.583 102.623C304.293 102.668 304.961 102.979 305.453 103.493C305.541 103.619 305.594 103.765 305.607 103.918C305.62 104.071 305.592 104.224 305.527 104.363C305.462 104.501 305.361 104.62 305.235 104.707C305.109 104.794 304.962 104.847 304.809 104.859Z" fill="#263238"/>
<path d="M290.715 106.651C291.22 106.547 291.672 106.364 292.159 106.216C292.694 106.128 293.186 105.868 293.56 105.477C293.652 105.331 293.693 105.16 293.677 104.988C293.661 104.817 293.59 104.655 293.473 104.529C293.204 104.313 292.883 104.172 292.542 104.122C292.201 104.072 291.853 104.113 291.533 104.242C290.842 104.405 290.237 104.821 289.836 105.407C289.769 105.547 289.74 105.703 289.752 105.858C289.765 106.013 289.819 106.161 289.909 106.288C289.999 106.416 290.12 106.516 290.262 106.58C290.404 106.644 290.56 106.668 290.715 106.651Z" fill="#263238"/>
<path d="M294.117 111.924C294.117 111.871 294.004 112.011 294.013 112.072C294.23 113.55 294.221 115.282 292.934 115.926C292.89 115.926 292.934 116.021 292.934 116.012C294.569 115.595 294.552 113.29 294.117 111.924Z" fill="#263238"/>
<path d="M292.612 110.514C290.202 110.601 290.55 115.421 292.786 115.343C295.022 115.264 294.639 110.444 292.612 110.514Z" fill="#263238"/>
<path d="M291.681 110.81C291.281 111.105 290.907 111.619 290.402 111.68C289.898 111.741 289.341 111.306 288.923 110.853C288.923 110.801 288.836 110.853 288.845 110.914C288.897 111.836 289.315 112.759 290.315 112.828C291.316 112.898 291.82 112.019 291.985 111.088C292.012 110.958 291.847 110.723 291.681 110.81Z" fill="#263238"/>
<path d="M302.408 110.566C302.408 110.514 302.53 110.636 302.53 110.697C302.53 112.193 302.887 113.898 304.27 114.307C304.27 114.307 304.27 114.394 304.27 114.386C302.6 114.29 302.208 111.993 302.408 110.566Z" fill="#263238"/>
<path d="M303.6 108.922C305.992 108.583 306.497 113.394 304.279 113.707C302.06 114.02 301.634 109.209 303.6 108.922Z" fill="#263238"/>
<path d="M304.67 109.139C305.079 109.348 305.54 109.775 305.958 109.757C306.375 109.74 306.828 109.174 307.106 108.644C307.106 108.592 307.184 108.644 307.193 108.687C307.306 109.601 307.106 110.592 306.245 110.862C305.383 111.132 304.783 110.375 304.505 109.487C304.409 109.322 304.513 109.07 304.67 109.139Z" fill="#263238"/>
<path d="M294.665 123.321C295.03 123.669 295.396 124.138 295.944 124.191C296.501 124.161 297.046 124.016 297.545 123.764C297.555 123.76 297.566 123.76 297.577 123.763C297.587 123.766 297.597 123.773 297.604 123.781C297.61 123.79 297.614 123.801 297.615 123.812C297.615 123.823 297.612 123.833 297.606 123.842C297.403 124.144 297.121 124.385 296.791 124.539C296.462 124.692 296.097 124.752 295.735 124.712C295.427 124.643 295.147 124.483 294.93 124.254C294.714 124.025 294.57 123.736 294.517 123.425C294.491 123.312 294.604 123.277 294.665 123.321Z" fill="#263238"/>
<path d="M300.442 117.413C300.442 117.413 300.938 119.614 301.025 120.659C301.025 120.763 300.79 120.833 300.433 120.876C300.433 120.876 300.433 120.876 300.39 120.876C299.501 121.116 298.563 121.107 297.679 120.849C296.794 120.592 295.998 120.095 295.378 119.414C295.3 119.319 295.378 119.197 295.526 119.258C296.942 120.063 298.582 120.387 300.198 120.18C300.25 119.884 299.224 116.439 299.389 116.413C300.213 116.419 301.031 116.533 301.825 116.752C300.955 112.133 299.293 107.704 298.467 103.093C298.464 103.061 298.472 103.028 298.49 103C298.508 102.973 298.534 102.952 298.565 102.941C298.595 102.93 298.629 102.93 298.66 102.94C298.692 102.95 298.718 102.971 298.736 102.998C300.772 107.53 301.921 112.82 302.974 117.561C303.113 118.162 300.877 117.553 300.442 117.413Z" fill="#263238"/>
<path d="M291.611 119.388C290.385 119.38 289.186 119.028 288.15 118.372C287.114 117.716 286.284 116.782 285.752 115.677C285.22 114.572 285.01 113.34 285.144 112.121C285.278 110.902 285.751 109.746 286.51 108.783C287.269 107.819 288.283 107.089 289.437 106.674C290.59 106.258 291.837 106.175 293.036 106.433C294.235 106.692 295.337 107.281 296.217 108.135C297.097 108.989 297.72 110.072 298.015 111.262C298.43 112.949 298.159 114.732 297.263 116.219C296.366 117.706 294.915 118.777 293.229 119.197C292.7 119.325 292.157 119.389 291.611 119.388ZM291.69 107.164C291.218 107.16 290.747 107.215 290.289 107.33C288.886 107.676 287.667 108.544 286.881 109.758C286.096 110.971 285.802 112.439 286.061 113.861C286.319 115.283 287.11 116.554 288.272 117.413C289.434 118.273 290.88 118.657 292.316 118.488C293.752 118.318 295.069 117.608 295.999 116.501C296.929 115.395 297.402 113.975 297.323 112.532C297.243 111.089 296.616 109.73 295.569 108.733C294.522 107.735 293.135 107.175 291.69 107.164Z" fill="#165C5D"/>
<path d="M306.541 117.648C304.035 117.648 301.782 115.038 301.407 111.654C301.197 110.035 301.501 108.391 302.277 106.956C302.572 106.316 303.028 105.763 303.599 105.351C304.171 104.939 304.839 104.682 305.539 104.604C306.239 104.526 306.948 104.63 307.596 104.907C308.244 105.183 308.81 105.622 309.237 106.182C310.308 107.417 310.965 108.956 311.117 110.584C311.508 114.168 309.664 117.335 306.993 117.631C306.843 117.651 306.692 117.657 306.541 117.648ZM305.958 105.468C305.848 105.459 305.737 105.459 305.627 105.468C305.07 105.551 304.542 105.768 304.087 106.1C303.633 106.431 303.266 106.868 303.017 107.373C302.335 108.649 302.068 110.106 302.252 111.541C302.6 114.656 304.661 116.987 306.854 116.761C309.046 116.535 310.552 113.786 310.212 110.671C310.075 109.228 309.495 107.864 308.55 106.765C308.232 106.381 307.836 106.067 307.39 105.844C306.944 105.621 306.456 105.493 305.958 105.468Z" fill="#165C5D"/>
<path d="M297.876 112.036L297.249 111.436C298.119 110.497 300.303 109.131 302.078 110.653L301.503 111.314C299.92 109.94 297.962 111.958 297.876 112.036Z" fill="#165C5D"/>
<path d="M269.061 116.9L268.243 116.587C268.391 116.213 269.731 112.855 271.636 112.324C273.541 111.793 285.208 111.628 285.713 111.619V112.489C282.337 112.542 273.246 112.776 271.862 113.159C270.479 113.542 269.418 116.03 269.061 116.9Z" fill="#165C5D"/>
<path d="M274.725 116.787C274.725 116.787 269.452 110.279 266.468 112.211C263.484 114.142 267.79 123.808 271.532 124.904C272.003 125.077 272.503 125.154 273.004 125.128C273.505 125.103 273.995 124.977 274.446 124.758C274.897 124.538 275.299 124.23 275.628 123.852C275.957 123.473 276.206 123.032 276.36 122.555L274.725 116.787Z" fill="#FFC4C0"/>
<path d="M267.773 114.951C267.764 114.955 267.756 114.962 267.751 114.97C267.745 114.979 267.742 114.989 267.742 114.999C267.742 115.009 267.745 115.019 267.751 115.028C267.756 115.036 267.764 115.043 267.773 115.047C270.383 115.917 271.923 118.179 272.993 120.571C272.167 119.701 271.097 119.232 269.896 120.224C269.877 120.234 269.864 120.251 269.858 120.271C269.853 120.292 269.855 120.314 269.866 120.332C269.876 120.351 269.894 120.364 269.914 120.37C269.934 120.376 269.956 120.373 269.975 120.362C270.419 120.177 270.911 120.136 271.38 120.247C271.849 120.358 272.27 120.615 272.585 120.98C273.101 121.576 273.551 122.226 273.924 122.921C274.063 123.138 274.464 122.99 274.359 122.738V122.677C274.15 119.414 271.297 115.03 267.773 114.951Z" fill="#263238"/>
<mask id="mask2_134_243" style="mask-type:luminance" maskUnits="userSpaceOnUse" x="256" y="82" width="61" height="67">
<path d="M316.867 141.26H314.353C314.101 138.05 312.065 133.143 312.613 135.623C312.94 137.483 313.051 139.375 312.944 141.26H305.114C302.772 143.257 300.129 144.872 297.284 146.045C295.616 146.741 293.886 147.274 292.116 147.637C290.098 148.079 288.039 148.3 285.974 148.298C283.572 148.299 281.179 148.007 278.848 147.428C275.935 146.705 273.152 145.531 270.601 143.948C269.278 143.157 268.026 142.251 266.86 141.242H264.25C264.14 140.377 264.114 139.503 264.172 138.632C263.911 138.328 263.658 138.041 263.406 137.762C263.127 139.033 262.927 140.303 262.788 141.242H258.186C258.133 138.122 258.634 135.018 259.665 132.073C256.835 126.46 255.873 120.091 256.918 113.893C257.964 107.696 260.962 101.994 265.477 97.6206C268.026 93.114 271.645 90.9743 272.497 90.1823H272.541C278.065 82.1695 287.714 80.8993 295.074 83.6311L295.265 83.692C303.183 86.4239 308.75 94.0887 309.751 100.352C309.812 100.797 309.873 101.222 309.934 101.64C312.414 105.085 314.119 109.025 314.932 113.191C315.745 117.357 315.645 121.65 314.64 125.774C317.259 132.873 316.867 141.26 316.867 141.26Z" fill="white"/>
</mask>
<g mask="url(#mask2_134_243)">
<path d="M300.12 148.22C299.781 149.856 296.84 155.023 291.82 156.824C285.295 159.182 273.089 151.779 266.912 147.576L266.799 147.489C267.981 146.212 269.258 145.025 270.618 143.939C273.17 145.522 275.952 146.696 278.866 147.419C281.197 147.998 283.589 148.29 285.991 148.289C288.056 148.291 290.116 148.07 292.133 147.628C293.903 147.265 295.634 146.732 297.301 146.036C298.283 146.708 299.224 147.437 300.12 148.22Z" fill="#455A64"/>
<path d="M292.133 147.594C292.072 150.482 291.715 153.31 290.672 153.422C286.409 153.91 281.754 150.352 278.866 147.385C281.197 147.963 283.589 148.255 285.991 148.255C288.056 148.257 290.116 148.035 292.133 147.594Z" fill="#FFC4C0"/>
</g>
<path d="M46.992 423.32C45.3067 423.32 43.7493 423.043 42.32 422.488C40.912 421.912 39.6853 421.112 38.64 420.088C37.5947 419.043 36.784 417.816 36.208 416.408C35.6533 414.979 35.376 413.411 35.376 411.704C35.376 410.04 35.6747 408.504 36.272 407.096C36.8693 405.688 37.6907 404.472 38.736 403.448C39.8027 402.403 41.0507 401.592 42.48 401.016C43.9307 400.44 45.5093 400.152 47.216 400.152C48.2827 400.152 49.328 400.291 50.352 400.568C51.376 400.845 52.3253 401.261 53.2 401.816C54.096 402.349 54.864 402.989 55.504 403.736L52.176 407.544C51.728 407.075 51.248 406.669 50.736 406.328C50.2453 405.965 49.7013 405.688 49.104 405.496C48.5067 405.304 47.8667 405.208 47.184 405.208C46.3307 405.208 45.52 405.368 44.752 405.688C44.0053 405.987 43.344 406.424 42.768 407C42.2133 407.555 41.776 408.237 41.456 409.048C41.136 409.859 40.976 410.765 40.976 411.768C40.976 412.749 41.136 413.645 41.456 414.456C41.776 415.245 42.224 415.928 42.8 416.504C43.376 417.08 44.0693 417.517 44.88 417.816C45.712 418.115 46.6293 418.264 47.632 418.264C48.3147 418.264 48.9653 418.168 49.584 417.976C50.2027 417.784 50.768 417.528 51.28 417.208C51.8133 416.867 52.2827 416.483 52.688 416.056L55.312 420.216C54.7787 420.813 54.064 421.347 53.168 421.816C52.2933 422.285 51.312 422.659 50.224 422.936C49.1573 423.192 48.08 423.32 46.992 423.32ZM58.4908 423V399.32H63.5148V409.464L62.4908 409.848C62.7254 409.08 63.1414 408.387 63.7388 407.768C64.3574 407.128 65.0934 406.616 65.9468 406.232C66.8001 405.848 67.6961 405.656 68.6348 405.656C69.9148 405.656 70.9921 405.923 71.8668 406.456C72.7414 406.968 73.4028 407.747 73.8507 408.792C74.2988 409.816 74.5228 411.075 74.5228 412.568V423H69.3708V412.984C69.3708 412.301 69.2748 411.736 69.0828 411.288C68.8908 410.84 68.5921 410.509 68.1868 410.296C67.8028 410.061 67.3228 409.955 66.7468 409.976C66.2988 409.976 65.8828 410.051 65.4988 410.2C65.1148 410.328 64.7841 410.531 64.5068 410.808C64.2294 411.064 64.0054 411.363 63.8348 411.704C63.6854 412.045 63.6108 412.419 63.6108 412.824V423H61.0828C60.4854 423 59.9734 423 59.5468 423C59.1201 423 58.7681 423 58.4908 423ZM85.0753 423.288C83.6459 423.288 82.3659 422.915 81.2352 422.168C80.1259 421.4 79.2406 420.355 78.5793 419.032C77.9179 417.688 77.5872 416.173 77.5872 414.488C77.5872 412.76 77.9179 411.235 78.5793 409.912C79.2406 408.589 80.1473 407.555 81.2993 406.808C82.4513 406.04 83.7633 405.656 85.2353 405.656C86.0459 405.656 86.7819 405.773 87.4433 406.008C88.1259 406.243 88.7233 406.573 89.2353 407C89.7473 407.405 90.1846 407.885 90.5473 408.44C90.9099 408.973 91.1766 409.549 91.3473 410.168L90.2913 410.04V406.008H95.3793V423H90.1953V418.904L91.3473 418.872C91.1766 419.469 90.8993 420.035 90.5153 420.568C90.1313 421.101 89.6619 421.571 89.1073 421.976C88.5526 422.381 87.9339 422.701 87.2513 422.936C86.5686 423.171 85.8433 423.288 85.0753 423.288ZM86.4833 418.968C87.2726 418.968 87.9553 418.787 88.5313 418.424C89.1073 418.061 89.5553 417.549 89.8753 416.888C90.1953 416.205 90.3553 415.405 90.3553 414.488C90.3553 413.571 90.1953 412.781 89.8753 412.12C89.5553 411.437 89.1073 410.915 88.5313 410.552C87.9553 410.168 87.2726 409.976 86.4833 409.976C85.7153 409.976 85.0433 410.168 84.4673 410.552C83.9126 410.915 83.4753 411.437 83.1553 412.12C82.8353 412.781 82.6753 413.571 82.6753 414.488C82.6753 415.405 82.8353 416.205 83.1553 416.888C83.4753 417.549 83.9126 418.061 84.4673 418.424C85.0433 418.787 85.7153 418.968 86.4833 418.968ZM101.305 423V401.72H106.425V423H101.305ZM98.297 410.488V406.008H109.721V410.488H98.297ZM40.848 463L34.128 440.6H39.664L43.024 452.376C43.1733 452.909 43.3013 453.453 43.408 454.008C43.536 454.541 43.632 455.053 43.696 455.544C43.7813 456.035 43.8453 456.493 43.888 456.92C43.9307 457.325 43.9733 457.667 44.016 457.944H43.312C43.44 457.155 43.5467 456.451 43.632 455.832C43.7387 455.213 43.856 454.637 43.984 454.104C44.112 453.549 44.272 452.973 44.464 452.376L47.792 443.512H52.144L55.408 452.376C55.664 453.08 55.8773 453.741 56.048 454.36C56.2187 454.979 56.3467 455.576 56.432 456.152C56.5387 456.707 56.624 457.261 56.688 457.816L56.048 457.912C56.0907 457.528 56.1227 457.176 56.144 456.856C56.1653 456.515 56.1867 456.195 56.208 455.896C56.2507 455.576 56.2933 455.245 56.336 454.904C56.3787 454.563 56.4427 454.189 56.528 453.784C56.6133 453.357 56.7307 452.877 56.88 452.344L60.208 440.6H65.616L58.896 463H54.736L49.424 450.104L50.032 450.168L45.136 463H40.848ZM68.3413 463V446.008H73.4613V463H68.3413ZM70.9013 442.648C69.9413 442.648 69.1839 442.424 68.6293 441.976C68.0959 441.507 67.8293 440.845 67.8293 439.992C67.8293 439.224 68.1066 438.595 68.6613 438.104C69.2159 437.613 69.9626 437.368 70.9013 437.368C71.8613 437.368 72.6079 437.603 73.1413 438.072C73.6746 438.52 73.9413 439.16 73.9413 439.992C73.9413 440.781 73.6639 441.421 73.1093 441.912C72.5759 442.403 71.8399 442.648 70.9013 442.648ZM79.68 463V441.72H84.8V463H79.68ZM76.672 450.488V446.008H88.096V450.488H76.672ZM91.022 463V439.32H96.046V449.464L95.022 449.848C95.2567 449.08 95.6727 448.387 96.27 447.768C96.8887 447.128 97.6247 446.616 98.478 446.232C99.3313 445.848 100.227 445.656 101.166 445.656C102.446 445.656 103.523 445.923 104.398 446.456C105.273 446.968 105.934 447.747 106.382 448.792C106.83 449.816 107.054 451.075 107.054 452.568V463H101.902V452.984C101.902 452.301 101.806 451.736 101.614 451.288C101.422 450.84 101.123 450.509 100.718 450.296C100.334 450.061 99.854 449.955 99.278 449.976C98.83 449.976 98.414 450.051 98.03 450.2C97.646 450.328 97.3153 450.531 97.038 450.808C96.7607 451.064 96.5367 451.363 96.366 451.704C96.2167 452.045 96.142 452.419 96.142 452.824V463H93.614C93.0167 463 92.5047 463 92.078 463C91.6513 463 91.2993 463 91.022 463ZM36.816 503V480.6H42.256V503H36.816ZM39.344 494.424V489.88H50.928V494.424H39.344ZM39.344 485.4V480.6H52.24V485.4H39.344ZM55.772 503V486.008H60.636L60.86 491.544L59.9 490.488C60.156 489.571 60.572 488.749 61.148 488.024C61.7453 487.299 62.4387 486.723 63.228 486.296C64.0173 485.869 64.86 485.656 65.756 485.656C66.14 485.656 66.492 485.688 66.812 485.752C67.1533 485.816 67.4627 485.891 67.74 485.976L66.332 491.64C66.0973 491.491 65.7773 491.373 65.372 491.288C64.988 491.181 64.5827 491.128 64.156 491.128C63.6867 491.128 63.2493 491.213 62.844 491.384C62.4387 491.533 62.0973 491.757 61.82 492.056C61.5427 492.355 61.3187 492.707 61.148 493.112C60.9987 493.517 60.924 493.976 60.924 494.488V503H55.772ZM70.6225 503V486.008H75.7425V503H70.6225ZM73.1825 482.648C72.2225 482.648 71.4652 482.424 70.9105 481.976C70.3772 481.507 70.1105 480.845 70.1105 479.992C70.1105 479.224 70.3878 478.595 70.9425 478.104C71.4972 477.613 72.2438 477.368 73.1825 477.368C74.1425 477.368 74.8892 477.603 75.4225 478.072C75.9558 478.52 76.2225 479.16 76.2225 479.992C76.2225 480.781 75.9452 481.421 75.3905 481.912C74.8572 482.403 74.1212 482.648 73.1825 482.648ZM88.6493 503.32C86.7719 503.32 85.1399 502.947 83.7533 502.2C82.3666 501.432 81.2893 500.397 80.5213 499.096C79.7533 497.773 79.3693 496.269 79.3693 494.584C79.3693 493.283 79.5826 492.088 80.0093 491C80.4359 489.912 81.0333 488.973 81.8013 488.184C82.5693 487.373 83.4759 486.755 84.5213 486.328C85.5879 485.88 86.7506 485.656 88.0093 485.656C89.2039 485.656 90.2919 485.869 91.2733 486.296C92.2759 486.723 93.1399 487.32 93.8653 488.088C94.5906 488.856 95.1453 489.763 95.5293 490.808C95.9133 491.853 96.0839 492.995 96.0413 494.232L96.0093 495.608H82.4733L81.7373 492.728H91.8493L91.3053 493.336V492.696C91.2626 492.163 91.0919 491.693 90.7933 491.288C90.5159 490.861 90.1426 490.531 89.6733 490.296C89.2039 490.061 88.6706 489.944 88.0733 489.944C87.2413 489.944 86.5266 490.115 85.9293 490.456C85.3533 490.776 84.9159 491.256 84.6173 491.896C84.3186 492.515 84.1693 493.283 84.1693 494.2C84.1693 495.139 84.3613 495.96 84.7453 496.664C85.1506 497.347 85.7266 497.88 86.4733 498.264C87.2413 498.648 88.1479 498.84 89.1933 498.84C89.9186 498.84 90.5586 498.733 91.1133 498.52C91.6893 498.307 92.3079 497.944 92.9693 497.432L95.3693 500.824C94.7079 501.4 94.0039 501.869 93.2573 502.232C92.5106 502.595 91.7426 502.861 90.9533 503.032C90.1853 503.224 89.4173 503.32 88.6493 503.32ZM99.3033 503V486.008H104.167L104.327 489.464L103.303 489.848C103.538 489.08 103.954 488.387 104.551 487.768C105.17 487.128 105.906 486.616 106.759 486.232C107.613 485.848 108.509 485.656 109.447 485.656C110.727 485.656 111.805 485.923 112.679 486.456C113.554 486.968 114.215 487.747 114.663 488.792C115.111 489.816 115.335 491.075 115.335 492.568V503H110.183V492.984C110.183 492.301 110.087 491.736 109.895 491.288C109.703 490.84 109.405 490.509 108.999 490.296C108.615 490.061 108.135 489.955 107.559 489.976C107.111 489.976 106.695 490.051 106.311 490.2C105.927 490.328 105.597 490.531 105.319 490.808C105.042 491.064 104.818 491.363 104.647 491.704C104.498 492.045 104.423 492.419 104.423 492.824V503H101.895C101.298 503 100.786 503 100.359 503C99.9326 503 99.5806 503 99.3033 503ZM126.048 503.352C124.576 503.352 123.264 502.979 122.112 502.232C120.981 501.464 120.085 500.419 119.424 499.096C118.762 497.752 118.432 496.227 118.432 494.52C118.432 492.813 118.762 491.299 119.424 489.976C120.085 488.632 120.992 487.576 122.144 486.808C123.296 486.04 124.618 485.656 126.112 485.656C126.88 485.656 127.616 485.773 128.32 486.008C129.024 486.243 129.664 486.563 130.24 486.968C130.816 487.373 131.285 487.843 131.648 488.376C132.01 488.888 132.224 489.421 132.288 489.976L131.072 490.264V479.32H136.224V503H131.456L131.168 499.128L132.192 499.288C132.128 499.821 131.914 500.333 131.552 500.824C131.21 501.315 130.762 501.752 130.208 502.136C129.653 502.499 129.013 502.787 128.288 503C127.584 503.235 126.837 503.352 126.048 503.352ZM127.36 499.096C128.149 499.096 128.832 498.904 129.408 498.52C129.984 498.136 130.421 497.603 130.72 496.92C131.04 496.237 131.2 495.437 131.2 494.52C131.2 493.581 131.04 492.771 130.72 492.088C130.421 491.405 129.984 490.872 129.408 490.488C128.832 490.104 128.149 489.912 127.36 489.912C126.57 489.912 125.888 490.104 125.312 490.488C124.757 490.872 124.32 491.405 124 492.088C123.68 492.771 123.52 493.581 123.52 494.52C123.52 495.437 123.68 496.237 124 496.92C124.32 497.603 124.757 498.136 125.312 498.52C125.888 498.904 126.57 499.096 127.36 499.096ZM146.281 503.32C144.617 503.32 143.145 503.053 141.865 502.52C140.607 501.987 139.604 501.272 138.857 500.376L141.961 497.688C142.623 498.349 143.369 498.84 144.201 499.16C145.033 499.459 145.823 499.608 146.569 499.608C146.868 499.608 147.135 499.576 147.369 499.512C147.604 499.448 147.796 499.363 147.945 499.256C148.116 499.128 148.244 498.989 148.329 498.84C148.415 498.669 148.457 498.477 148.457 498.264C148.457 497.837 148.265 497.507 147.881 497.272C147.689 497.165 147.369 497.037 146.921 496.888C146.473 496.739 145.897 496.568 145.193 496.376C144.191 496.12 143.316 495.821 142.569 495.48C141.844 495.117 141.247 494.701 140.777 494.232C140.351 493.784 140.02 493.293 139.785 492.76C139.551 492.205 139.433 491.587 139.433 490.904C139.433 490.115 139.615 489.4 139.977 488.76C140.361 488.12 140.863 487.565 141.481 487.096C142.121 486.627 142.847 486.275 143.657 486.04C144.489 485.784 145.343 485.656 146.217 485.656C147.156 485.656 148.052 485.763 148.905 485.976C149.759 486.189 150.548 486.488 151.273 486.872C152.02 487.256 152.681 487.715 153.257 488.248L150.569 491.256C150.185 490.893 149.748 490.573 149.257 490.296C148.788 489.997 148.297 489.763 147.785 489.592C147.273 489.421 146.804 489.336 146.377 489.336C146.057 489.336 145.769 489.368 145.513 489.432C145.279 489.475 145.076 489.56 144.905 489.688C144.735 489.795 144.607 489.933 144.521 490.104C144.436 490.253 144.393 490.435 144.393 490.648C144.393 490.861 144.447 491.064 144.553 491.256C144.681 491.448 144.852 491.608 145.065 491.736C145.279 491.864 145.62 492.013 146.089 492.184C146.559 492.333 147.199 492.525 148.009 492.76C149.012 493.037 149.876 493.347 150.601 493.688C151.327 494.029 151.903 494.435 152.329 494.904C152.671 495.267 152.927 495.693 153.097 496.184C153.268 496.653 153.353 497.165 153.353 497.72C153.353 498.808 153.044 499.779 152.425 500.632C151.828 501.464 150.996 502.125 149.929 502.616C148.863 503.085 147.647 503.32 146.281 503.32Z" fill="white"/>
</g>
<defs>
<linearGradient id="paint0_linear_134_243" x1="0" y1="0" x2="385.361" y2="732.242" gradientUnits="userSpaceOnUse">
<stop stop-color="#30C2BF"/>
<stop offset="1" stop-color="#1EB159"/>
</linearGradient>
<linearGradient id="paint1_linear_134_243" x1="754.12" y1="625.632" x2="370.235" y2="-230.677" gradientUnits="userSpaceOnUse">
<stop stop-color="#30C2BF"/>
<stop offset="0.9999" stop-color="#1EB159"/>
<stop offset="1" stop-color="#30C2BF"/>
</linearGradient>
<clipPath id="clip0_134_243">
<rect width="728" height="545" fill="white"/>
</clipPath>
</defs>
</svg>
