<svg width="106" height="92" viewBox="0 0 106 92" fill="none" xmlns="http://www.w3.org/2000/svg">
<ellipse cx="3.37375" cy="3.5" rx="3.37948" ry="3.5" fill="#F5F6F8" fill-opacity="0.6"/>
<ellipse cx="3.37375" cy="20.5" rx="3.37948" ry="3.5" fill="#F5F6F8" fill-opacity="0.6"/>
<ellipse cx="3.37375" cy="37.5" rx="3.37948" ry="3.5" fill="#F5F6F8" fill-opacity="0.6"/>
<ellipse cx="3.37375" cy="54.5" rx="3.37948" ry="3.5" fill="#F5F6F8" fill-opacity="0.6"/>
<ellipse cx="3.37375" cy="71.5" rx="3.37948" ry="3.5" fill="#F5F6F8" fill-opacity="0.6"/>
<ellipse cx="3.37375" cy="88.5" rx="3.37948" ry="3.5" fill="#F5F6F8" fill-opacity="0.6"/>
<ellipse cx="19.7884" cy="3.5" rx="3.37948" ry="3.5" fill="#F5F6F8" fill-opacity="0.6"/>
<ellipse cx="19.7884" cy="20.5" rx="3.37948" ry="3.5" fill="#F5F6F8" fill-opacity="0.6"/>
<ellipse cx="19.7884" cy="37.5" rx="3.37948" ry="3.5" fill="#F5F6F8" fill-opacity="0.6"/>
<ellipse cx="19.7884" cy="54.5" rx="3.37948" ry="3.5" fill="#F5F6F8" fill-opacity="0.6"/>
<ellipse cx="19.7884" cy="71.5" rx="3.37948" ry="3.5" fill="#F5F6F8" fill-opacity="0.6"/>
<ellipse cx="19.7884" cy="88.5" rx="3.37948" ry="3.5" fill="#F5F6F8" fill-opacity="0.6"/>
<ellipse cx="36.203" cy="3.5" rx="3.37948" ry="3.5" fill="#F5F6F8" fill-opacity="0.6"/>
<ellipse cx="36.203" cy="20.5" rx="3.37948" ry="3.5" fill="#F5F6F8" fill-opacity="0.6"/>
<ellipse cx="36.203" cy="37.5" rx="3.37948" ry="3.5" fill="#F5F6F8" fill-opacity="0.6"/>
<ellipse cx="36.203" cy="54.5" rx="3.37948" ry="3.5" fill="#F5F6F8" fill-opacity="0.6"/>
<ellipse cx="36.203" cy="71.5" rx="3.37948" ry="3.5" fill="#F5F6F8" fill-opacity="0.6"/>
<ellipse cx="36.203" cy="88.5" rx="3.37948" ry="3.5" fill="#F5F6F8" fill-opacity="0.6"/>
<ellipse cx="52.6176" cy="3.5" rx="3.37948" ry="3.5" fill="#F5F6F8" fill-opacity="0.6"/>
<ellipse cx="52.6176" cy="20.5" rx="3.37948" ry="3.5" fill="#F5F6F8" fill-opacity="0.6"/>
<ellipse cx="52.6176" cy="37.5" rx="3.37948" ry="3.5" fill="#F5F6F8" fill-opacity="0.6"/>
<ellipse cx="52.6176" cy="54.5" rx="3.37948" ry="3.5" fill="#F5F6F8" fill-opacity="0.6"/>
<ellipse cx="52.6176" cy="71.5" rx="3.37948" ry="3.5" fill="#F5F6F8" fill-opacity="0.6"/>
<ellipse cx="52.6176" cy="88.5" rx="3.37948" ry="3.5" fill="#F5F6F8" fill-opacity="0.6"/>
<ellipse cx="69.0323" cy="3.5" rx="3.37948" ry="3.5" fill="#F5F6F8" fill-opacity="0.6"/>
<ellipse cx="69.0323" cy="20.5" rx="3.37948" ry="3.5" fill="#F5F6F8" fill-opacity="0.6"/>
<ellipse cx="69.0323" cy="37.5" rx="3.37948" ry="3.5" fill="#F5F6F8" fill-opacity="0.6"/>
<ellipse cx="69.0323" cy="54.5" rx="3.37948" ry="3.5" fill="#F5F6F8" fill-opacity="0.6"/>
<ellipse cx="69.0323" cy="71.5" rx="3.37948" ry="3.5" fill="#F5F6F8" fill-opacity="0.6"/>
<ellipse cx="69.0323" cy="88.5" rx="3.37948" ry="3.5" fill="#F5F6F8" fill-opacity="0.6"/>
<ellipse cx="85.4469" cy="3.5" rx="3.37948" ry="3.5" fill="#F5F6F8" fill-opacity="0.6"/>
<ellipse cx="85.4469" cy="20.5" rx="3.37948" ry="3.5" fill="#F5F6F8" fill-opacity="0.6"/>
<ellipse cx="85.4469" cy="37.5" rx="3.37948" ry="3.5" fill="#F5F6F8" fill-opacity="0.6"/>
<ellipse cx="85.4469" cy="54.5" rx="3.37948" ry="3.5" fill="#F5F6F8" fill-opacity="0.6"/>
<ellipse cx="85.4469" cy="71.5" rx="3.37948" ry="3.5" fill="#F5F6F8" fill-opacity="0.6"/>
<ellipse cx="85.4469" cy="88.5" rx="3.37948" ry="3.5" fill="#F5F6F8" fill-opacity="0.6"/>
<ellipse cx="101.862" cy="3.5" rx="3.37948" ry="3.5" fill="#F5F6F8" fill-opacity="0.6"/>
<ellipse cx="101.862" cy="20.5" rx="3.37948" ry="3.5" fill="#F5F6F8" fill-opacity="0.6"/>
<ellipse cx="101.862" cy="37.5" rx="3.37948" ry="3.5" fill="#F5F6F8" fill-opacity="0.6"/>
<ellipse cx="101.862" cy="54.5" rx="3.37948" ry="3.5" fill="#F5F6F8" fill-opacity="0.6"/>
<ellipse cx="101.862" cy="71.5" rx="3.37948" ry="3.5" fill="#F5F6F8" fill-opacity="0.6"/>
<ellipse cx="101.862" cy="88.5" rx="3.37948" ry="3.5" fill="#F5F6F8" fill-opacity="0.6"/>
</svg>
